<?xml version="1.0" encoding="utf-8"?>
<!-- Generator: Adobe Illustrator 21.1.0, SVG Export Plug-In . SVG Version: 6.00 Build 0)  -->
<svg version="1.1" xmlns="http://www.w3.org/2000/svg" xmlns:xlink="http://www.w3.org/1999/xlink" x="0px" y="0px"
	 viewBox="0 0 175.5 175.4" style="enable-background:new 0 0 175.5 175.4;" xml:space="preserve">
<style type="text/css">
	.Arched_x0020_Green{fill:url(#SVGID_1_);stroke:#FFFFFF;stroke-width:0.25;stroke-miterlimit:1;}
	.st0{fill:none;stroke:#000000;stroke-width:12;stroke-miterlimit:10;}
</style>
<linearGradient id="SVGID_1_" gradientUnits="userSpaceOnUse" x1="-56.3522" y1="195.1031" x2="-55.6451" y2="194.396">
	<stop  offset="0" style="stop-color:#20AC4B"/>
	<stop  offset="0.9831" style="stop-color:#19361A"/>
</linearGradient>
<g id="Layer_1">
	<path d="M45.9,65.4l13.8,36.9h-8.4l-2.8-8.2H34.6l-2.9,8.2h-8.1l13.9-36.9H45.9z M46.3,88.1l-4.6-13.6h-0.1l-4.8,13.6H46.3z"/>
	<path d="M110.1,127.9c0.4,0.9,1,1.6,1.8,2.1c0.7,0.5,1.6,0.9,2.6,1.2c1,0.3,2.1,0.4,3.1,0.4c0.7,0,1.5-0.1,2.3-0.2
		c0.8-0.1,1.6-0.4,2.3-0.7c0.7-0.3,1.3-0.8,1.8-1.4c0.5-0.6,0.7-1.4,0.7-2.3c0-1-0.3-1.8-1-2.4c-0.6-0.6-1.5-1.1-2.5-1.5
		c-1-0.4-2.2-0.8-3.5-1.1c-1.3-0.3-2.6-0.7-4-1c-1.4-0.3-2.7-0.8-4-1.3c-1.3-0.5-2.5-1.1-3.5-1.9c-1-0.8-1.9-1.8-2.5-3
		c-0.6-1.2-1-2.7-1-4.3c0-1.9,0.4-3.5,1.2-4.9c0.8-1.4,1.9-2.6,3.2-3.5c1.3-0.9,2.8-1.6,4.4-2.1c1.7-0.5,3.3-0.7,5-0.7
		c1.9,0,3.8,0.2,5.5,0.7c1.8,0.4,3.4,1.1,4.7,2.1c1.4,1,2.5,2.2,3.3,3.7c0.8,1.5,1.2,3.3,1.2,5.5h-7.8c-0.1-1.1-0.3-2-0.7-2.8
		c-0.4-0.7-0.9-1.3-1.6-1.7c-0.7-0.4-1.4-0.7-2.3-0.9c-0.9-0.2-1.8-0.3-2.8-0.3c-0.7,0-1.3,0.1-2,0.2c-0.7,0.1-1.2,0.4-1.8,0.7
		c-0.5,0.4-1,0.8-1.3,1.3c-0.3,0.5-0.5,1.2-0.5,2c0,0.7,0.1,1.3,0.4,1.8c0.3,0.5,0.8,0.9,1.6,1.2c0.8,0.4,1.9,0.8,3.4,1.1
		c1.4,0.4,3.3,0.9,5.6,1.5c0.7,0.1,1.6,0.4,2.9,0.7c1.2,0.4,2.4,1,3.6,1.7c1.2,0.8,2.2,1.9,3.1,3.2c0.9,1.3,1.3,3,1.3,5.1
		c0,1.7-0.3,3.3-1,4.7c-0.7,1.4-1.6,2.7-2.9,3.7c-1.3,1-2.9,1.9-4.8,2.5c-1.9,0.6-4.1,0.9-6.6,0.9c-2,0-4-0.3-5.9-0.8
		c-1.9-0.5-3.6-1.3-5.1-2.3c-1.4-1.1-2.6-2.4-3.5-4.1c-0.8-1.7-1.3-3.6-1.2-5.9h7.9C109.5,126,109.7,127,110.1,127.9"/>
	<path d="M135.2,36.6c1.8,1.4,3.1,2.9,4,4.5c0.9,1.5,1.3,3.1,1.4,4.6c0.1,1.5-0.1,2.9-0.6,4.3c-0.5,1.4-1.3,2.7-2.2,3.9
		c-0.9,1.2-2,2.2-3.3,3c-1.2,0.8-2.6,1.4-4.1,1.6c-1.5,0.2-3.1,0.1-4.8-0.4c-1.7-0.5-3.4-1.5-5.2-2.9l-6.7-5.3l-8.3,10.3l-6.3-5.1
		l23.1-28.8L135.2,36.6z M122.6,48.8c0.7,0.6,1.5,1.1,2.2,1.5c0.8,0.4,1.5,0.7,2.3,0.8c0.8,0.1,1.5,0,2.3-0.3
		c0.7-0.3,1.5-0.9,2.2-1.8c0.7-0.9,1.2-1.8,1.3-2.6c0.1-0.8,0.1-1.6-0.2-2.3c-0.3-0.7-0.7-1.4-1.3-2.1c-0.6-0.6-1.2-1.3-2-1.8l-5-4
		l-6.9,8.6L122.6,48.8z"/>
	<path d="M172.2,87.7c0,22.6-8.8,43.7-24.7,59.7c-15.9,15.9-37.1,24.7-59.7,24.7c-22.6,0-43.8-8.8-59.7-24.7
		c-16-15.9-24.8-37.1-24.8-59.7C3.3,65.2,12.1,44,28.1,28C44,12.1,65.2,3.3,87.7,3.3c22.5,0,43.7,8.8,59.7,24.7
		C163.4,44,172.2,65.2,172.2,87.7 M87.7,0c-23.4,0-45.5,9.1-62,25.7C9.2,42.3,0,64.3,0,87.7c0,23.4,9.2,45.5,25.7,62
		c16.6,16.6,38.6,25.7,62,25.7c23.4,0,45.4-9.1,62-25.7c16.6-16.6,25.7-38.6,25.7-62c0-23.4-9.1-45.4-25.7-62
		C133.2,9.1,111.2,0,87.7,0"/>
	<g>
		<path d="M154,152.6c0-4.7,3.7-8.4,8.4-8.4s8.4,3.7,8.4,8.4c0,4.7-3.7,8.4-8.4,8.4S154,157.3,154,152.6z M169.5,152.6
			c0-4-3.3-7.1-7.1-7.1c-3.8,0-7.1,3.1-7.1,7.1c0,3.9,3.3,7.1,7.1,7.1C166.2,159.7,169.5,156.6,169.5,152.6z M166.4,157.2h-1.5
			l-2.7-4.2h-1.5v4.2h-1.3V148h4c1.6,0,3.3,0.4,3.3,2.4c0,1.8-1.3,2.5-2.9,2.5L166.4,157.2z M162.1,151.6c1.1,0,3.1,0.2,3.1-1.2
			c0-0.9-1.2-1.1-2.2-1.1h-2.4v2.4H162.1z"/>
	</g>
</g>
<g id="Layer_2">
	<path class="st0" d="M145.7,72c-7.4,6-16.9,9.5-27.2,9.5c-24,0-43.5-19.5-43.5-43.5c0-2.5,0.2-4.9,0.6-7.2"/>
	<polyline class="st0" points="91.9,72.5 79.7,86.8 79.7,142.7 	"/>
	<g>
	</g>
	<g>
	</g>
	<g>
	</g>
	<g>
	</g>
	<g>
	</g>
	<g>
	</g>
</g>
</svg>
