<?xml version="1.0" encoding="utf-8"?>
<!-- Generator: Adobe Illustrator 22.1.0, SVG Export Plug-In . SVG Version: 6.00 Build 0)  -->
<svg version="1.1" id="Layer_1" xmlns="http://www.w3.org/2000/svg" xmlns:xlink="http://www.w3.org/1999/xlink" x="0px" y="0px"
	 viewBox="0 0 108.3 73.2" style="enable-background:new 0 0 108.3 73.2;" xml:space="preserve">
<style type="text/css">
	.st0{fill:#B5BFDE;}
	.st1{fill:#00529C;enable-background:new    ;}
</style>
<g id="XMLID_241_">
	<g id="XMLID_515_">
		<g id="XMLID_516_">
			<path id="XMLID_580_" class="st0" d="M54.2,7.3C28.3,7.3,7.3,20.4,7.3,36.6c0,16.2,21,29.3,46.9,29.3c25.9,0,46.9-13.2,46.9-29.3
				C101.1,20.4,80,7.3,54.2,7.3z M81.4,48.6c1.5-3.2,2.4-6.6,2.6-10.3h13.5c-0.4,3.7-2.1,7.2-4.9,10.3H81.4z M33.1,52.2h19.3v10.2
				C44.5,61.9,37.6,58,33.1,52.2z M15.8,48.6c-2.8-3.1-4.5-6.6-4.9-10.3h13.5c0.2,3.6,1.1,7.1,2.6,10.3H15.8z M26.9,24.6
				c-1.5,3.2-2.4,6.6-2.6,10.3H10.9c0.4-3.7,2.1-7.2,4.9-10.3H26.9z M75.2,21.1H55.9V10.8C63.8,11.3,70.7,15.2,75.2,21.1z
				 M77.5,24.6c1.7,3.1,2.7,6.6,3,10.3H55.9V24.6H77.5z M52.4,24.6v10.3H27.9c0.3-3.7,1.3-7.2,3-10.3H52.4z M33.1,21.1
				c4.5-5.8,11.4-9.7,19.3-10.2v10.2H33.1z M27.9,38.4h24.5v10.3H30.8C29.2,45.5,28.1,42.1,27.9,38.4z M55.9,52.2h19.3
				c-4.5,5.8-11.4,9.7-19.3,10.2V52.2z M55.9,48.6V38.4h24.5c-0.3,3.7-1.3,7.2-3,10.3H55.9z M84,34.9c-0.2-3.6-1.1-7.1-2.6-10.3
				h11.1c2.8,3.1,4.5,6.6,4.9,10.3H84z M88.8,21.1h-9.3c-2-3.1-4.5-5.8-7.5-8C78.6,14.9,84.4,17.6,88.8,21.1z M28.8,21.1h-9.3
				c4.4-3.4,10.2-6.2,16.8-8C33.4,15.2,30.8,18,28.8,21.1z M19.5,52.2h9.3c2,3.1,4.5,5.8,7.5,8C29.7,58.4,23.9,55.6,19.5,52.2z
				 M79.5,52.2h9.3c-4.4,3.4-10.1,6.2-16.8,8C74.9,58,77.5,55.3,79.5,52.2z"/>
			<path id="XMLID_517_" class="st1" d="M20.6,30.7C21,30.4,22,30,24.8,30c2.6,0,3.5,0.2,3.8,0.4c0.3,0.2,0.7,0.7,0.7,2.2l0,0.3h4.8
				v-0.3c0-2.8-0.6-4.5-1.8-5.4c-1.2-0.8-3.6-1.2-7.5-1.2c-3,0-5,0.3-6.3,0.8c-1.3,0.5-2.3,1.6-2.9,3.1c-0.5,1.2-0.7,4-0.7,8.5
				c0,3.6,0.6,5.9,1.9,7.1c1.3,1.2,3.7,1.8,7.6,1.8c4.1,0,6.7-0.4,8-1.3c1.3-0.9,1.9-2.9,1.9-5.9c0,0-0.1-4.4-0.1-4.4H24.1v3.5
				c0,0,4.7,0,5.3,0c0,0.2,0,0.5,0,0.5c0,2-0.4,2.8-0.8,3c-0.4,0.3-1.3,0.6-4,0.6c-2.7,0-3.7-0.4-4.1-0.7c-0.4-0.3-0.8-1.2-0.8-3.6
				c0,0,0-2.6,0-2.6l0-2C19.7,32,20.2,31.1,20.6,30.7z M53,36.8c0.5-0.8,0.8-2.2,0.8-4.4c0-2.3-0.5-4-1.6-4.9
				c-1.1-0.9-2.9-1.4-5.6-1.4H35.8v20.9h4.7c0,0,0-6.2,0-6.9c0.6,0,5.5,0,5.5,0c2,0,2.9,0.9,2.9,2.8v4h4.7v-4.8c0-2.2-1-3.6-2.8-4.1
				C51.8,37.9,52.6,37.5,53,36.8z M48.4,35.8c-0.4,0.4-1.2,0.6-2.5,0.6c0,0-4.8,0-5.5,0v-6.3c0.6,0,5.7,0,5.7,0
				c1.5,0,2.1,0.3,2.3,0.5c0.2,0.2,0.5,0.9,0.5,2.6C49,34.8,48.7,35.5,48.4,35.8z M68.1,43.1c-0.3,0.2-1.1,0.5-3.2,0.5
				c-2.9,0-3.8-0.3-4.1-0.4c-0.2-0.1-0.6-0.6-0.6-2.3c0,0,0-0.8,0-0.8h-4.6l0,1.1c0,2.5,0.6,4.1,1.8,5c1.2,0.8,3.4,1.2,6.9,1.2
				c3.8,0,6.3-0.4,7.4-1.2c1.2-0.9,1.8-2.7,1.8-5.5c0-2.3-0.5-3.8-1.5-4.6c-1-0.7-3.1-1.2-6.3-1.4c-3.4-0.2-4.3-0.4-4.6-0.6
				c-0.2-0.1-0.5-0.5-0.5-2c0-0.9,0.2-1.6,0.7-1.8c0.4-0.2,1.3-0.5,3.6-0.5c2,0,2.7,0.2,2.9,0.4c0.2,0.2,0.5,0.6,0.6,1.9
				c0,0,0,0.4,0,0.4l0,0.3l0.3,0h4.3l0-1.1c0-2.2-0.6-3.7-1.8-4.5c-1.2-0.8-3.4-1.1-6.7-1.1c-3.5,0-5.8,0.4-7,1.2
				c-1.2,0.9-1.8,2.5-1.8,5c0,2.4,0.5,4,1.5,4.8c1,0.8,3.2,1.2,6.6,1.4l2.2,0.1c1.5,0.1,2,0.3,2.2,0.5c0.2,0.2,0.5,0.6,0.5,1.7
				C68.7,42.3,68.4,42.9,68.1,43.1z M87.7,43.1c-0.3,0.2-1.1,0.5-3.2,0.5c-2.9,0-3.8-0.3-4.1-0.4c-0.2-0.1-0.6-0.6-0.6-2.3
				c0,0,0-0.8,0-0.8h-4.6l0,1.1c0,2.5,0.6,4.1,1.8,5c1.2,0.8,3.4,1.2,6.9,1.2c3.8,0,6.3-0.4,7.4-1.2c1.2-0.9,1.8-2.7,1.8-5.5
				c0-2.3-0.5-3.8-1.5-4.6c-1-0.7-3.1-1.2-6.3-1.4c-3.4-0.2-4.3-0.4-4.6-0.6c-0.2-0.1-0.5-0.5-0.5-2c0-0.9,0.2-1.6,0.7-1.8
				c0.4-0.2,1.3-0.5,3.6-0.5c2,0,2.7,0.2,2.9,0.4c0.2,0.2,0.5,0.6,0.6,1.9c0,0,0,0.4,0,0.4l0,0.3l0.3,0h4.3l0-1.1
				c0-2.2-0.6-3.7-1.8-4.5C89.5,26.4,87.3,26,84,26c-3.5,0-5.8,0.4-7,1.2v0c-1.2,0.9-1.8,2.5-1.8,5c0,2.4,0.5,4,1.5,4.8
				c1,0.8,3.2,1.2,6.6,1.4l2.2,0.1c1.5,0.1,2,0.3,2.2,0.5c0.2,0.2,0.5,0.6,0.5,1.7C88.3,42.3,88,42.9,87.7,43.1z M108.3,36.6
				C108.3,16.1,84.5,0,54.2,0c-13.4,0-26.2,3.2-36,9.1l-0.4,0.2c0,0-1.6-2.5-2.2-3.3C15,7.1,8.9,19.2,8.3,20.3
				c1.3-0.1,14.8-0.8,16-0.9c-0.5-0.8-1.9-2.9-1.9-2.9l0.4-0.2c8.5-4.9,19.6-7.7,31.3-7.7c25.1,0,45.6,12.6,45.6,28
				c0,9.8-8.1,18.7-21.7,23.9l0,0c-7,2.6-15.1,4.2-23.9,4.2c-25.1,0-45.6-12.6-45.6-28c0-5.9,3-11.4,8.1-15.9l-9.8,0.5l3-6
				C3.7,21.2,0,28.6,0,36.6c0,20.5,23.8,36.6,54.2,36.6c12.1,0,23.1-2.5,32-6.9l0.4,0.3l-0.2-0.4C100.3,59.3,108.3,48.5,108.3,36.6z
				 M27.8,12.3l-2.1-5.2L28,6.2l2.1,5.2L27.8,12.3z M38.5,8.8l-0.9-5.6L46,1.9l0.2,1l-5.9,0.9l0.2,1.2l5.4-0.9l0.2,1L40.6,6l0.2,1.4
				l6-1l0.2,1L38.5,8.8z M64.1,3.2l-5.9-0.4L58.1,4l5.4,0.4l-0.1,1L58,4.9l-0.1,1.4L64,6.7l-0.1,1l-8.5-0.6l0.4-5.6l8.4,0.6
				L64.1,3.2z M81.6,7.6L76,5.8l-0.4,1.1l5.2,1.7l-0.3,0.9l-5.2-1.7l-0.4,1.3l5.8,1.9l-0.3,1l-8.1-2.7L74,4l8,2.6L81.6,7.6z
				 M97.7,50.7l1.2,0.5c0.1,0.1,0.3,0.1,0.5,0.2l0,0c-0.1-0.1-0.2-0.3-0.3-0.4l-0.8-1l0.5-0.7l1,1.5c0.6,0.9,0.8,1.4,0.8,1.7
				c0,0.4-0.1,0.7-0.2,0.8L99.8,53c0-0.1,0.1-0.2,0.1-0.4c0-0.1,0-0.3-0.1-0.5c0,0,0-0.1-0.1-0.1c0,0-0.1,0-0.1-0.1l-2.4-0.7
				L97.7,50.7z M91.9,54.9c0.2-0.2,0.5-0.1,0.6,0c0.1,0.2,0.1,0.4-0.1,0.6l0,0c-0.2,0.2-0.5,0.1-0.6,0C91.7,55.3,91.7,55,91.9,54.9z
				 M76.3,63.2c0.3-0.1,0.5,0,0.6,0.3c0.1,0.2,0,0.5-0.3,0.5l0,0c-0.3,0.1-0.5,0-0.6-0.3C75.9,63.5,76,63.2,76.3,63.2z M21.6,59
				c0.1-0.2,0.4-0.3,0.6-0.1c0.2,0.1,0.3,0.4,0.2,0.6c-0.1,0.2-0.4,0.3-0.6,0.1l0,0C21.5,59.4,21.5,59.2,21.6,59z M8.8,52.6
				c-0.4-0.5-0.6-1-0.5-1.4c0-0.4,0.3-0.9,0.7-1.2c0.9-0.7,2-0.5,2.7,0.4c0.3,0.4,0.4,0.7,0.5,0.9l-0.6,0.3
				c-0.1-0.2-0.1-0.4-0.4-0.7c-0.4-0.5-1-0.7-1.6-0.2C9,51,8.9,51.7,9.3,52.2c0.1,0.1,0.2,0.2,0.3,0.3l0.6-0.5l-0.3-0.4l0.5-0.4
				l0.8,1l-1.5,1.2C9.5,53.2,9.1,52.9,8.8,52.6z M12.8,55.4l-1.2-1.2c-0.2,0.3-0.1,0.6,0.2,0.9c0.2,0.2,0.4,0.3,0.6,0.4l-0.3,0.5
				c-0.3-0.1-0.5-0.3-0.8-0.5c-0.6-0.6-0.6-1.3,0-1.9c0.5-0.5,1.3-0.7,1.9,0c0.6,0.6,0.4,1.3-0.1,1.7C12.9,55.2,12.9,55.3,12.8,55.4
				z M13.7,57.6L13.7,57.6c-0.6-0.5-0.7-1.2-0.2-1.9c0.5-0.6,1.3-0.7,1.9-0.2c0.6,0.5,0.7,1.3,0.2,1.9
				C15.1,58.1,14.3,58.1,13.7,57.6z M17.6,57.9c-0.2-0.1-0.3-0.1-0.4,0c-0.1,0.1,0,0.2,0.2,0.5c0.3,0.4,0.3,0.7,0.1,1
				c-0.3,0.4-0.8,0.5-1.4,0c-0.3-0.2-0.5-0.4-0.6-0.6l0.4-0.4c0.1,0.2,0.3,0.4,0.5,0.6c0.2,0.1,0.3,0.1,0.4,0
				c0.1-0.1,0.1-0.2-0.1-0.5c-0.3-0.5-0.3-0.8-0.2-1.1c0.3-0.4,0.8-0.4,1.3-0.1c0.2,0.2,0.4,0.4,0.5,0.5L18,58.3
				C17.9,58.2,17.8,58,17.6,57.9z M19,59.8c-0.3,0.4-0.1,0.8,0.2,1c0.2,0.1,0.3,0.2,0.4,0.2l-0.2,0.5c-0.2,0-0.4-0.1-0.7-0.3
				c-0.7-0.4-0.9-1.2-0.4-1.8c0.4-0.6,1.2-0.9,2-0.4c0.2,0.1,0.4,0.3,0.5,0.4l-0.4,0.4c-0.1-0.1-0.2-0.2-0.3-0.3
				C19.6,59.3,19.2,59.4,19,59.8z M20,61.9l1.3-2.2l0.7,0.4l-1.3,2.2L20,61.9z M24,62.9l-1.5-0.8c-0.1,0.3,0.1,0.6,0.4,0.8
				c0.2,0.1,0.5,0.2,0.7,0.2l-0.2,0.5c-0.3,0-0.6-0.1-0.9-0.3c-0.8-0.4-1-1.1-0.6-1.8c0.3-0.6,1-1,1.8-0.6c0.7,0.4,0.7,1.1,0.4,1.7
				C24.1,62.7,24,62.8,24,62.9z M27.1,63.7l-0.6,1.4l-0.7-0.3l0.6-1.3c0.1-0.3,0.1-0.6-0.1-0.7c-0.2-0.1-0.4,0-0.5,0.1
				c0,0-0.1,0.1-0.1,0.2L25,64.5l-0.7-0.3l0.7-1.6c0.1-0.3,0.2-0.5,0.3-0.8l0.6,0.3l-0.1,0.3l0,0c0.2-0.1,0.5-0.2,0.9-0.1
				C27.2,62.6,27.4,63,27.1,63.7z M29.4,64.1c-0.4-0.1-0.8,0-0.9,0.4c-0.2,0.4,0,0.8,0.4,0.9c0.2,0.1,0.3,0.1,0.5,0.1l-0.1,0.6
				c-0.2,0-0.4,0-0.7-0.1c-0.8-0.3-1.1-1-0.8-1.7c0.3-0.7,1-1.1,1.9-0.8c0.2,0.1,0.4,0.2,0.5,0.3l-0.3,0.5
				C29.7,64.2,29.6,64.2,29.4,64.1z M32.4,65.8c0,0.1-0.1,0.2-0.1,0.3l-1.6-0.5c-0.1,0.3,0.2,0.6,0.5,0.7c0.3,0.1,0.5,0.1,0.7,0.1
				L31.9,67c-0.3,0-0.6,0-0.9-0.1c-0.8-0.3-1.1-0.9-0.9-1.7c0.2-0.6,0.8-1.2,1.7-0.9C32.5,64.5,32.6,65.2,32.4,65.8z M36.3,66.7
				l-0.2,0.9C36,67.8,36,68,36,68.2L35.3,68l0-0.3l0,0c-0.2,0.2-0.5,0.2-0.8,0.1c-0.5-0.1-0.7-0.6-0.6-1c0.2-0.6,0.8-0.8,1.7-0.6
				l0,0c0-0.1,0-0.3-0.4-0.4c-0.3-0.1-0.5-0.1-0.7,0l0-0.5c0.2-0.1,0.6-0.1,1,0C36.3,65.6,36.5,66.1,36.3,66.7z M39.5,67.4l-0.3,1.5
				l-0.8-0.2l0.3-1.4c0.1-0.3,0-0.6-0.3-0.6c-0.2,0-0.4,0.1-0.5,0.2c0,0-0.1,0.1-0.1,0.2l-0.3,1.5l-0.8-0.2l0.4-1.7
				c0.1-0.3,0.1-0.6,0.2-0.8L38,66l0,0.4l0,0c0.1-0.1,0.4-0.3,0.9-0.2C39.4,66.3,39.7,66.7,39.5,67.4z M42.7,68.7
				c0,0.3-0.1,0.6-0.1,0.8l-0.7-0.1l0-0.4l0,0c-0.2,0.3-0.5,0.3-0.9,0.3c-0.6-0.1-1-0.7-0.9-1.5c0.1-0.9,0.8-1.3,1.4-1.2
				c0.3,0.1,0.5,0.2,0.6,0.4l0,0l0.2-1.4l0.8,0.1L42.7,68.7z M47.1,69c0.1,0.4,0.1,0.9,0.2,1L46.5,70c0-0.1-0.1-0.4-0.2-0.8
				c-0.1-0.5-0.2-0.6-0.5-0.6l-0.2,0l-0.1,1.4l-0.8-0.1l0.4-3.5c0.3,0,0.6,0,1.1,0c0.5,0.1,0.9,0.2,1.1,0.4c0.2,0.2,0.3,0.4,0.3,0.8
				c0,0.4-0.4,0.7-0.7,0.8l0,0C47,68.4,47.1,68.7,47.1,69z M50.3,69.2l-1.7-0.1c0,0.3,0.3,0.5,0.7,0.5c0.3,0,0.5,0,0.7-0.1l0.1,0.5
				c-0.3,0.1-0.6,0.1-0.9,0.1c-0.9-0.1-1.3-0.6-1.3-1.4c0-0.7,0.5-1.3,1.4-1.3c0.8,0.1,1.1,0.7,1.1,1.4C50.4,69,50.3,69.1,50.3,69.2
				z M54.9,70.3l-0.8,0l0-1.4c0-0.4-0.1-0.6-0.4-0.6c-0.2,0-0.3,0.1-0.4,0.3c0,0.1,0,0.1,0,0.2l0,1.5l-0.8,0l0-1.4
				c0-0.3-0.1-0.5-0.4-0.5c-0.2,0-0.3,0.2-0.4,0.3c0,0.1,0,0.1,0,0.2l0,1.5l-0.8,0l0-1.8c0-0.3,0-0.6,0-0.8l0.7,0l0,0.4h0
				c0.1-0.2,0.3-0.4,0.8-0.4c0.3,0,0.6,0.2,0.7,0.5h0c0.1-0.1,0.2-0.2,0.3-0.3c0.1-0.1,0.3-0.1,0.5-0.1c0.5,0,0.9,0.4,0.9,1.1
				L54.9,70.3z M57.1,70.3L57.1,70.3c-0.8,0-1.4-0.4-1.4-1.3c0-0.8,0.5-1.4,1.3-1.4c0.8,0,1.3,0.5,1.4,1.3
				C58.4,69.8,57.8,70.3,57.1,70.3z M60.1,70.2c-0.3,0-0.5-0.1-0.6-0.2c-0.2-0.1-0.2-0.4-0.3-0.7l-0.1-1.1l-0.3,0l0-0.6l0.3,0l0-0.5
				l0.8-0.3l0,0.7l0.6,0l0,0.6l-0.6,0l0.1,0.9c0,0.3,0.1,0.4,0.3,0.4c0.1,0,0.2,0,0.2,0l0,0.6C60.5,70.1,60.3,70.2,60.1,70.2z
				 M63.4,68.8l-1.6,0.2c0.1,0.3,0.4,0.5,0.8,0.4c0.3,0,0.5-0.1,0.7-0.2l0.2,0.5c-0.3,0.1-0.6,0.2-0.9,0.3c-0.9,0.1-1.4-0.4-1.5-1.2
				c-0.1-0.6,0.3-1.4,1.2-1.5c0.8-0.1,1.2,0.5,1.3,1.2C63.4,68.6,63.4,68.7,63.4,68.8z M66.3,69.5c-0.4,0.1-0.8,0-1-0.1l0.1-0.7
				c0.2,0.1,0.6,0.1,0.9,0.1c0.4-0.1,0.5-0.2,0.5-0.5c0-0.2-0.2-0.3-0.7-0.4c-0.6-0.1-1-0.4-1.1-0.9c-0.1-0.6,0.3-1.1,1.2-1.3
				c0.4-0.1,0.7,0,0.9,0l-0.1,0.7c-0.1,0-0.4-0.1-0.8-0.1c-0.3,0.1-0.5,0.2-0.5,0.4c0,0.2,0.2,0.3,0.7,0.4c0.7,0.1,1,0.4,1.1,0.9
				C67.6,68.7,67.2,69.3,66.3,69.5z M69.7,68.8c-0.9,0.2-1.4-0.2-1.6-1c-0.1-0.6,0.1-1.4,1-1.6c0.8-0.2,1.3,0.4,1.4,1
				c0,0.1,0,0.3,0,0.3l-1.6,0.3c0.1,0.3,0.4,0.4,0.8,0.3c0.3-0.1,0.5-0.1,0.7-0.2l0.2,0.5C70.3,68.7,70,68.8,69.7,68.8z M73,68
				l-0.3-1.4c-0.1-0.3-0.2-0.5-0.5-0.4c-0.2,0.1-0.3,0.2-0.3,0.4c0,0.1,0,0.1,0,0.2l0.4,1.4l-0.8,0.2L71,66.7
				c-0.1-0.3-0.2-0.6-0.2-0.8l0.7-0.2l0.1,0.3l0,0c0.1-0.2,0.3-0.5,0.7-0.6c0.5-0.1,1,0.1,1.2,0.9l0.4,1.5L73,68z M75.4,67.4
				c-0.3,0.1-0.6,0.1-0.8,0.1l0-0.6c0.2,0,0.5,0.1,0.7,0c0.2-0.1,0.3-0.2,0.3-0.3c0-0.1-0.1-0.2-0.4-0.2c-0.6,0-0.8-0.2-0.9-0.5
				c-0.1-0.5,0.2-0.9,0.8-1.1c0.3-0.1,0.6-0.1,0.7-0.1l0,0.6c-0.1,0-0.4,0-0.6,0c-0.2,0.1-0.3,0.2-0.2,0.3c0,0.1,0.1,0.2,0.5,0.2
				c0.5,0,0.8,0.2,0.9,0.6C76.3,66.8,76.1,67.2,75.4,67.4z M77,66.9l-0.8-2.4l0.8-0.2l0.8,2.4L77,66.9z M80.2,65.8l-0.5-1.3
				c-0.1-0.3-0.3-0.5-0.6-0.4c-0.2,0.1-0.3,0.3-0.3,0.4c0,0.1,0,0.1,0,0.2l0.5,1.4l-0.7,0.3L78,64.7c-0.1-0.3-0.2-0.5-0.3-0.8
				l0.6-0.2l0.2,0.3l0,0c0-0.2,0.2-0.5,0.6-0.7c0.5-0.2,1,0,1.2,0.7l0.5,1.4L80.2,65.8z M84,65c-0.2,0.3-0.5,0.6-0.8,0.7
				c-0.3,0.1-0.7,0.2-0.9,0.2l-0.1-0.6c0.2,0,0.5,0,0.8-0.1c0.3-0.2,0.5-0.5,0.3-0.9l-0.1-0.1l0,0c-0.1,0.3-0.2,0.5-0.5,0.6
				c-0.6,0.3-1.2,0-1.5-0.7c-0.3-0.8-0.1-1.5,0.5-1.7c0.3-0.1,0.6-0.1,0.8,0l0,0L82.4,62l0.6-0.3c0.1,0.2,0.1,0.4,0.3,0.7l0.6,1.3
				C84.1,64.2,84.2,64.6,84,65z M86.9,62.8c-0.4,0.2-0.8,0.3-1,0.3l-0.2-0.7c0.2,0,0.6-0.1,0.9-0.2c0.3-0.2,0.4-0.4,0.3-0.6
				c-0.1-0.2-0.3-0.2-0.8-0.2c-0.6,0.1-1.1,0-1.4-0.5c-0.3-0.5-0.1-1.2,0.7-1.6c0.4-0.2,0.6-0.3,0.9-0.3l0.1,0.6
				c-0.2,0-0.4,0-0.7,0.2c-0.3,0.2-0.4,0.4-0.3,0.5c0.1,0.2,0.3,0.2,0.8,0.1c0.7-0.1,1.1,0.1,1.3,0.5C87.9,61.6,87.7,62.3,86.9,62.8
				z M90,61L90,61c-0.6,0.4-1.4,0.3-1.8-0.4c-0.4-0.7-0.3-1.4,0.4-1.9c0.7-0.4,1.4-0.2,1.8,0.4C90.9,59.9,90.5,60.6,90,61z M92.8,59
				c-0.7,0.5-1.4,0.4-1.9-0.3c-0.4-0.6-0.4-1.4,0.4-2c0.2-0.1,0.4-0.2,0.6-0.3l0.3,0.6c-0.1,0-0.2,0.1-0.4,0.2
				c-0.3,0.2-0.4,0.7-0.1,1c0.3,0.4,0.7,0.4,1,0.2c0.2-0.1,0.3-0.2,0.3-0.3l0.4,0.4C93.3,58.6,93.1,58.8,92.8,59z M94,58l-1.6-2
				l0.6-0.5l1.6,2L94,58z M96.3,56c-0.6,0.6-1.3,0.6-1.9,0c-0.4-0.5-0.6-1.3,0-1.9c0.6-0.6,1.3-0.3,1.7,0.2c0.1,0.1,0.2,0.2,0.2,0.3
				l-1.2,1.1c0.2,0.2,0.6,0.1,0.9-0.1c0.2-0.2,0.3-0.4,0.4-0.6l0.4,0.3C96.8,55.6,96.6,55.8,96.3,56z M98.4,53.9
				c-0.2,0.2-0.4,0.3-0.6,0.3c-0.2,0-0.4-0.1-0.7-0.3l-0.8-0.7l-0.2,0.3L95.7,53l0.2-0.3l-0.4-0.3l0.4-0.7l0.5,0.5l0.4-0.4l0.4,0.4
				l-0.4,0.4l0.7,0.6c0.2,0.2,0.4,0.2,0.5,0.1c0.1-0.1,0.1-0.1,0.1-0.2l0.5,0.4C98.7,53.6,98.6,53.7,98.4,53.9z M12,53.8l0.7,0.7
				c0.1-0.1,0.3-0.4,0.1-0.7C12.5,53.5,12.2,53.7,12,53.8z M94.8,54.6c-0.2,0.2-0.1,0.6,0,0.7l0.7-0.6C95.3,54.5,95,54.3,94.8,54.6z
				 M49.2,68.1c-0.3,0-0.5,0.3-0.5,0.5l0.9,0.1C49.7,68.4,49.6,68.1,49.2,68.1z M46.1,66.9c-0.2,0-0.3,0-0.4,0l-0.1,1l0.3,0
				c0.4,0,0.7-0.1,0.7-0.4C46.7,67.2,46.5,67,46.1,66.9z M62.1,67.8c-0.3,0-0.4,0.4-0.4,0.6l0.9-0.1C62.6,68.1,62.5,67.8,62.1,67.8z
				 M69.1,66.7c-0.3,0.1-0.4,0.4-0.4,0.6l0.9-0.2C69.6,67,69.5,66.7,69.1,66.7z M57,68.2c-0.4,0-0.5,0.4-0.5,0.8
				c0,0.4,0.2,0.8,0.5,0.7l0,0c0.3,0,0.5-0.3,0.5-0.8C57.5,68.6,57.4,68.2,57,68.2z M41.6,67.3c-0.4-0.1-0.6,0.2-0.7,0.6
				c-0.1,0.4,0.1,0.7,0.4,0.8c0.2,0,0.4-0.1,0.5-0.3c0-0.1,0-0.1,0-0.2l0.1-0.3c0,0,0-0.1,0-0.1C42,67.5,41.9,67.3,41.6,67.3z
				 M82.7,63c0,0,0-0.1-0.1-0.1c-0.1-0.2-0.3-0.2-0.5-0.1c-0.3,0.1-0.4,0.5-0.2,0.9c0.2,0.4,0.4,0.5,0.8,0.4
				c0.2-0.1,0.3-0.3,0.3-0.5c0-0.1,0-0.1-0.1-0.2L82.7,63z M23.4,61.4c-0.3-0.2-0.6,0.1-0.7,0.2l0.8,0.4
				C23.7,61.9,23.8,61.5,23.4,61.4z M88.8,59.2c-0.3,0.2-0.2,0.6,0,0.9c0.2,0.4,0.6,0.5,0.9,0.4l0,0c0.3-0.2,0.3-0.5,0-0.9
				C89.5,59.2,89.2,59,88.8,59.2z M31.5,64.7c-0.3-0.1-0.6,0.1-0.6,0.3l0.9,0.3C31.9,65.2,31.9,64.8,31.5,64.7z M34.7,67
				c-0.1,0.2,0.1,0.3,0.2,0.4c0.2,0,0.4,0,0.5-0.2c0,0,0-0.1,0-0.1l0.1-0.3C35.1,66.7,34.7,66.7,34.7,67z M14.2,56.3
				c-0.3,0.3-0.4,0.7-0.1,0.9l0,0c0.2,0.2,0.6,0.1,0.9-0.3c0.2-0.3,0.4-0.7,0.1-0.9C14.8,55.8,14.5,56,14.2,56.3z"/>
		</g>
	</g>
</g>
</svg>
