<?xml version="1.0" encoding="utf-8"?>
<!-- Generator: Adobe Illustrator 23.0.3, SVG Export Plug-In . SVG Version: 6.00 Build 0)  -->
<svg version="1.1" id="Layer_1" xmlns="http://www.w3.org/2000/svg" xmlns:xlink="http://www.w3.org/1999/xlink" x="0px" y="0px"
	 viewBox="0 0 425.1 124.1" style="enable-background:new 0 0 425.1 124.1;" xml:space="preserve">
<style type="text/css">
	.st0{fill:#00529C;}
</style>
<path class="st0" d="M141.8,110.3V16.4h26v93.9H141.8z"/>
<path class="st0" d="M181.4,110.3V16.4h71.5v18.2h-45.5V54h41.9v18.2h-41.9v19.9h45.5v18.2L181.4,110.3L181.4,110.3z"/>
<path class="st0" d="M267.5,110.3V16.4H339v18.2h-45.5V54h41.9v18.2h-41.9v19.9H339v18.2L267.5,110.3L267.5,110.3z"/>
<path class="st0" d="M353.6,110.3V16.4h71.5v18.2h-45.5V54h41.9v18.2h-41.9v19.9h45.5v18.2L353.6,110.3L353.6,110.3z"/>
<path class="st0" d="M70.5,8c3.9,4.9,7.9,10,12.1,14.7l10.3,10.8c9.3,9.3,19.2,17.5,29.9,24.7l0.3,0.1c1.4,0.9,2.3,2.4,2.4,4
	c-0.1,3.4-4,4.1-6.1,6c-20.7,15-39.1,33.5-53.7,54.2l-1.2,1.2c-1.2,0.7-2.7,0.4-3.9,0c-1.6-0.5-1.8-2.2-2.8-3.3
	c-3.2-5-7.3-9.7-10.9-14.4c-2.1-2.1-3.8-4.3-5.9-6.6C29,86.3,15.5,74.7,1.5,65c-1-1-1.8-2.3-1.4-3.9c0.4-1.8,2.5-2.9,3.9-3.9
	c17.7-12.3,33.8-28,47.4-44.9l8.5-11.1c1.1-0.9,2.6-1.6,4-1c0.6,0.2,1.4,0.7,1.9,1.1L70.5,8z M58.4,17.5c-4,2.9-7.7,5.8-11.5,9
	c-0.3,0.2-0.7,0.6-0.9,0.8c-8.8,7.9-17.6,16.5-24.7,25.6c-2,2.6-4.1,5.2-4.9,8.3c0,1.7,0.2,3.2,1.1,4.5c6,9,14.1,17.6,22,25
	c6.9,6.1,13.5,12.9,21.4,17c2.6,1.2,5.5-0.2,7.7-1.7c10.7-7.5,20.2-16.9,29.3-26.7c4.2-5.1,9-9.8,11.3-15.7c0.6-2.3-0.4-4.3-1.5-6.1
	c-7.1-10.1-15.6-19.6-24.9-28.2L82.2,29c-3.3-3.2-7.1-6.4-10.8-9.2C67.8,16.9,62.5,14.2,58.4,17.5z"/>
<path class="st0" d="M71.2,23.5C83.9,33.7,95.9,45.4,105,58.6c1.2,1.7,1.7,4.3,0.6,6.3c-2.4,3.9-5.6,7.5-8.6,11.2v0.2
	c-7.5,8-15.5,16.3-24.1,23.1c-4.2,2.6-8.1,8.2-13.5,4.7c-12.3-9-24.1-20.2-34.1-32.2c-1.7-2.6-4.3-4.8-5.5-7.8c-1.6-4.1,2-7,4.1-10
	c10.2-12.6,22.9-24.9,36-34C64.2,17.1,68,21.1,71.2,23.5z M62.6,28.3L61.4,32l-5.8,16.5c1.4,0.1,3.2,0,4.6,0.1v0.1l-0.8,18.7
	l0.1,0.2c1.8,0.2,4.1,0.3,6-0.1v-0.3l-0.7-18.1l0.1-0.6l5.1-0.1C67.5,41.7,65,35,62.6,28.3L62.6,28.3L62.6,28.3z M43,54.2
	c-3.2,1.6-8,4.1-7.5,8.5c0.7,2.4,3.3,4,5.4,5c11.5,5,26.7,5.2,38.8,1.4c3-1.2,7-2.8,7.5-6.5c0-3-3.2-4.9-5.5-6.1v-0.1
	c0.8-0.3,1.7-0.6,2.6-0.7v-0.1c-4.1-0.7-8-1.8-11.9-2.8c0.8,1.7,1.3,3.5,1.9,5.3c1.2-0.4,2.4-0.7,3.7-0.8c2.1,0.8,5,2,5.3,4.6
	c0.2,2.4-2.4,3.6-4.1,4.6c-8.9,3.2-18.9,3.5-28.1,1.1c-2.6-0.8-6.2-1.8-6.6-5.1c1.8-4.3,6.5-5.2,10.4-6.2c-2-1.3-4.1-2.4-6-3.9
	C46.8,52.4,44.9,53.3,43,54.2z M59.4,72.8c-0.3,6.6-0.4,12.8-0.9,19.4c2.6,0.2,5.6,0.5,8.4,0.1l-0.8-18.5L66,72.9
	C63.7,72.9,61.7,73,59.4,72.8z"/>
<path class="st0" d="M88.2,113.2v-1.7h1.1c0.6,0,1.4,0.1,1.4,0.8c0,0.8-0.4,0.9-1.1,0.9H88.2z M88.2,114.4h0.7l1.6,3h1.8l-1.8-3.1
	c0.9-0.1,1.7-0.5,1.7-1.8c0-1.6-1.1-2.1-2.9-2.1h-2.6v7.1h1.5V114.4z M95.9,113.8c0-4.1-3.1-6.6-6.6-6.6s-6.6,2.4-6.6,6.6
	c0,4.1,3.1,6.6,6.6,6.6C92.8,120.4,95.9,118,95.9,113.8z M94,113.8c0,3-2.2,5-4.7,5l0,0c-2.6,0-4.7-2-4.7-5s2.1-5,4.7-5
	C91.8,108.8,94,110.8,94,113.8z"/>
</svg>
