<?xml version="1.0" encoding="utf-8"?>
<!-- Generator: Adobe Illustrator 23.0.3, SVG Export Plug-In . SVG Version: 6.00 Build 0)  -->
<svg version="1.1" xmlns="http://www.w3.org/2000/svg" xmlns:xlink="http://www.w3.org/1999/xlink" x="0px" y="0px"
	 viewBox="0 0 364.8 230" style="enable-background:new 0 0 364.8 230;" xml:space="preserve">
<style type="text/css">
	.st0{opacity:0.5;fill:url(#SVGID_1_);}
	.st1{fill:url(#SVGID_2_);}
	.st2{fill:url(#SVGID_3_);}
	.st3{fill:url(#SVGID_4_);}
	.st4{fill:url(#SVGID_5_);}
	.st5{fill:#00629B;}
	.st6{fill:#414042;}
	.st7{fill:#78BE20;}
	.st8{fill:url(#SVGID_6_);}
	.st9{fill:url(#SVGID_7_);}
	.st10{fill:url(#SVGID_8_);}
	.st11{fill:url(#SVGID_9_);}
	.st12{fill:url(#SVGID_10_);}
	.st13{fill:url(#SVGID_11_);}
	.st14{fill:url(#SVGID_12_);}
	.st15{fill:none;}
	.st16{fill:url(#SVGID_13_);}
	.st17{fill:url(#SVGID_14_);}
	.st18{fill:url(#SVGID_15_);}
	.st19{fill:url(#SVGID_16_);}
	.st20{fill:url(#SVGID_17_);}
</style>
<g id="Layer_1">
	
		<radialGradient id="SVGID_1_" cx="-263.0531" cy="-898.3072" r="24.087" gradientTransform="matrix(4.3851 0 0 0.4909 1412.698 577.8758)" gradientUnits="userSpaceOnUse">
		<stop  offset="0" style="stop-color:#181818"/>
		<stop  offset="0.1421" style="stop-color:#717171"/>
		<stop  offset="0.2126" style="stop-color:#848484;stop-opacity:0.9178"/>
		<stop  offset="0.3916" style="stop-color:#B0B0B0;stop-opacity:0.7092"/>
		<stop  offset="0.5646" style="stop-color:#D2D2D2;stop-opacity:0.5076"/>
		<stop  offset="0.7277" style="stop-color:#EBEBEB;stop-opacity:0.3174"/>
		<stop  offset="0.8771" style="stop-color:#FAFAFA;stop-opacity:0.1432"/>
		<stop  offset="1" style="stop-color:#FFFFFF;stop-opacity:0"/>
	</radialGradient>
	<ellipse class="st0" cx="259.2" cy="136.9" rx="105.6" ry="11.8"/>
	<linearGradient id="SVGID_2_" gradientUnits="userSpaceOnUse" x1="196.2158" y1="62.9021" x2="315.0712" y2="62.9021">
		<stop  offset="0" style="stop-color:#78BE20"/>
		<stop  offset="6.368811e-02" style="stop-color:#5FAB3A"/>
		<stop  offset="0.1653" style="stop-color:#3D915D"/>
		<stop  offset="0.2685" style="stop-color:#227C78"/>
		<stop  offset="0.3726" style="stop-color:#0F6E8C"/>
		<stop  offset="0.4781" style="stop-color:#046597"/>
		<stop  offset="0.5873" style="stop-color:#00629B"/>
		<stop  offset="1" style="stop-color:#00629B"/>
	</linearGradient>
	<path class="st1" d="M268.7,54.1c-0.7,0-1.3,0.5-1.3,1.2c0,0.7,0.5,1.3,1.2,1.3c20.1,1,37.3,7.5,42.4,15.2c0.2-1.2,0.3-2.3,0.4-3.5
		C304.4,60.8,288.2,55.1,268.7,54.1z"/>
	<linearGradient id="SVGID_3_" gradientUnits="userSpaceOnUse" x1="153.7739" y1="60.2104" x2="260.112" y2="60.2104">
		<stop  offset="0.1701" style="stop-color:#00629B;stop-opacity:0"/>
		<stop  offset="0.5206" style="stop-color:#00629B;stop-opacity:0.8"/>
		<stop  offset="1" style="stop-color:#00629B"/>
	</linearGradient>
	<path class="st2" d="M158.4,108.7c-2.6,0-4.1-0.3-4.2-0.3c-0.3-0.1-0.5-0.3-0.4-0.6c0.1-0.3,0.3-0.5,0.6-0.4c0.1,0,9.5,1.6,20-3
		c13.9-6.1,23.5-20.3,27.8-41c3.2-15.7,11.6-36.5,32.9-46.5c12.8-6,24.4-5.2,24.5-5.2c0.3,0,0.5,0.3,0.5,0.6c0,0.3-0.3,0.5-0.6,0.5
		c-0.1,0-11.4-0.8-24,5.1C224,23.3,209,35.6,203.3,63.6C194.9,104.5,168.7,108.7,158.4,108.7z"/>
	<linearGradient id="SVGID_4_" gradientUnits="userSpaceOnUse" x1="206.1416" y1="64.7789" x2="313.9844" y2="64.7789">
		<stop  offset="0" style="stop-color:#00629B"/>
		<stop  offset="1" style="stop-color:#78BE20"/>
	</linearGradient>
	<path class="st3" d="M260.1,118.7c-29.7,0-53.9-24.2-53.9-53.9s24.2-53.9,53.9-53.9S314,35,314,64.8S289.8,118.7,260.1,118.7z
		 M260.1,13.4c-28.4,0-51.4,23.1-51.4,51.4s23.1,51.4,51.4,51.4c28.4,0,51.4-23.1,51.4-51.4S288.4,13.4,260.1,13.4z"/>
	<linearGradient id="SVGID_5_" gradientUnits="userSpaceOnUse" x1="228.0888" y1="44.4742" x2="323.4103" y2="44.4742">
		<stop  offset="0" style="stop-color:#00629B"/>
		<stop  offset="1" style="stop-color:#78BE20"/>
	</linearGradient>
	<path class="st4" d="M228.6,62.8c-0.1,0-0.1,0-0.2,0c-0.3-0.1-0.4-0.4-0.3-0.7c6.9-17.1,17.7-28.2,31.9-33.1
		c28.9-9.8,62.8,9.7,63.1,9.9c0.3,0.2,0.4,0.5,0.2,0.8c-0.2,0.3-0.5,0.4-0.8,0.2c-0.3-0.2-33.8-19.5-62.2-9.8
		c-13.9,4.7-24.4,15.7-31.2,32.5C229.1,62.7,228.9,62.8,228.6,62.8z"/>
	
		<rect x="225" y="58.6" transform="matrix(-0.4199 0.9076 -0.9076 -0.4199 380.9927 -119.6839)" class="st5" width="7.4" height="6.6"/>
	
		<rect x="298.5" y="67.9" transform="matrix(-0.4258 0.9048 -0.9048 -0.4258 491.3265 -172.5471)" class="st6" width="3.9" height="3.5"/>
	
		<rect x="220.7" y="73.4" transform="matrix(-0.4258 0.9048 -0.9048 -0.4258 385.4064 -94.3995)" class="st6" width="3.9" height="3.5"/>
	
		<rect x="270.9" y="19.2" transform="matrix(0.4361 0.8999 -0.8999 0.4361 172.5002 -233.7324)" class="st6" width="3.6" height="3.2"/>
	
		<rect x="248.2" y="73.8" transform="matrix(0.3153 0.949 -0.949 0.3153 246.2093 -186.3855)" class="st7" width="8.1" height="7.2"/>
	<rect x="226" y="27.8" transform="matrix(0.6399 -0.7685 0.7685 0.6399 60.28 187.8158)" class="st7" width="9" height="3.6"/>
	
		<rect x="240.2" y="105.9" transform="matrix(0.9235 0.3835 -0.3835 0.9235 60.0887 -85.5873)" class="st5" width="9" height="4.1"/>
	<linearGradient id="SVGID_6_" gradientUnits="userSpaceOnUse" x1="166.0202" y1="103.8227" x2="318.5678" y2="103.8227">
		<stop  offset="0" style="stop-color:#00629B;stop-opacity:0"/>
		<stop  offset="1" style="stop-color:#00629B"/>
	</linearGradient>
	<path class="st8" d="M264.7,127.1c-0.7,0-1.3,0-2,0c-0.3,0-0.6-0.3-0.5-0.6c0-0.3,0.2-0.5,0.6-0.5c0.7,0,1.3,0,2,0l0.2,0
		c0,0,0,0,0,0c0.3,0,0.6,0.2,0.6,0.5c0,0.3-0.2,0.6-0.6,0.6L264.7,127.1z M267.2,127.1c-0.3,0-0.6-0.2-0.6-0.5
		c0-0.3,0.2-0.6,0.5-0.6c0.7,0,1.5-0.1,2.2-0.1c0.3,0,0.6,0.2,0.6,0.5c0,0.3-0.2,0.6-0.5,0.6C268.7,127,268,127.1,267.2,127.1
		C267.2,127.1,267.2,127.1,267.2,127.1z M260.4,127C260.4,127,260.4,127,260.4,127c-0.8,0-1.5-0.1-2.3-0.2c-0.3,0-0.5-0.3-0.5-0.6
		c0-0.3,0.3-0.5,0.6-0.5c0.7,0.1,1.5,0.1,2.2,0.2c0.3,0,0.5,0.3,0.5,0.6C261,126.8,260.7,127,260.4,127z M271.7,126.8
		c-0.3,0-0.5-0.2-0.6-0.5c0-0.3,0.2-0.6,0.5-0.6c0.7-0.1,1.5-0.2,2.2-0.3c0.3,0,0.6,0.2,0.6,0.5c0,0.3-0.2,0.6-0.5,0.6
		C273.3,126.6,272.5,126.7,271.7,126.8C271.7,126.8,271.7,126.8,271.7,126.8z M256,126.6C255.9,126.6,255.9,126.6,256,126.6
		c-0.8-0.1-1.6-0.2-2.3-0.3c-0.3-0.1-0.5-0.3-0.5-0.6c0.1-0.3,0.3-0.5,0.6-0.5c0.7,0.1,1.5,0.2,2.2,0.3c0.3,0,0.5,0.3,0.5,0.6
		C256.5,126.4,256.2,126.6,256,126.6z M276.2,126.2c-0.3,0-0.5-0.2-0.6-0.5c-0.1-0.3,0.2-0.6,0.5-0.6c0.7-0.1,1.5-0.3,2.2-0.4
		c0.3-0.1,0.6,0.1,0.7,0.4c0.1,0.3-0.1,0.6-0.4,0.7C277.8,125.9,277,126,276.2,126.2C276.2,126.2,276.2,126.2,276.2,126.2z
		 M251.5,125.9c0,0-0.1,0-0.1,0c-0.7-0.1-1.5-0.3-2.2-0.5c-0.3-0.1-0.5-0.4-0.4-0.7c0.1-0.3,0.4-0.5,0.7-0.4
		c0.7,0.2,1.5,0.3,2.2,0.5c0.3,0.1,0.5,0.4,0.4,0.6C252,125.7,251.8,125.9,251.5,125.9z M280.6,125.3c-0.3,0-0.5-0.2-0.5-0.4
		c-0.1-0.3,0.1-0.6,0.4-0.7c0.7-0.2,1.4-0.4,2.2-0.6c0.3-0.1,0.6,0.1,0.7,0.4c0.1,0.3-0.1,0.6-0.4,0.7c-0.7,0.2-1.5,0.4-2.2,0.6
		C280.7,125.3,280.6,125.3,280.6,125.3z M247.1,124.8c0,0-0.1,0-0.2,0c-0.7-0.2-1.5-0.4-2.2-0.6c-0.3-0.1-0.5-0.4-0.4-0.7
		c0.1-0.3,0.4-0.4,0.7-0.4c0.7,0.2,1.4,0.4,2.1,0.6c0.3,0.1,0.5,0.4,0.4,0.7C247.6,124.7,247.4,124.8,247.1,124.8z M284.9,124.1
		c-0.2,0-0.5-0.1-0.5-0.4c-0.1-0.3,0.1-0.6,0.4-0.7c0.7-0.2,1.4-0.5,2.1-0.7c0.3-0.1,0.6,0,0.7,0.3c0.1,0.3,0,0.6-0.3,0.7
		c-0.7,0.3-1.4,0.5-2.1,0.7C285,124.1,285,124.1,284.9,124.1z M242.8,123.5c-0.1,0-0.1,0-0.2,0c-0.7-0.2-1.4-0.5-2.1-0.8
		c-0.3-0.1-0.4-0.4-0.3-0.7c0.1-0.3,0.4-0.4,0.7-0.3c0.7,0.3,1.4,0.5,2.1,0.8c0.3,0.1,0.4,0.4,0.3,0.7
		C243.3,123.3,243.1,123.5,242.8,123.5z M289.1,122.6c-0.2,0-0.4-0.1-0.5-0.3c-0.1-0.3,0-0.6,0.3-0.7c0.7-0.3,1.4-0.6,2-0.9
		c0.3-0.1,0.6,0,0.7,0.3c0.1,0.3,0,0.6-0.3,0.7c-0.7,0.3-1.4,0.6-2.1,0.9C289.3,122.5,289.2,122.6,289.1,122.6z M238.7,121.9
		c-0.1,0-0.2,0-0.2,0c-0.7-0.3-1.4-0.6-2.1-0.9c-0.3-0.1-0.4-0.5-0.3-0.7c0.1-0.3,0.5-0.4,0.8-0.3c0.7,0.3,1.3,0.6,2,0.9
		c0.3,0.1,0.4,0.4,0.3,0.7C239.1,121.7,238.9,121.9,238.7,121.9z M293.3,120.7c-0.2,0-0.4-0.1-0.5-0.3c-0.1-0.3,0-0.6,0.3-0.7
		c0.7-0.3,1.3-0.7,2-1c0.3-0.1,0.6-0.1,0.8,0.2c0.2,0.3,0.1,0.6-0.2,0.7c-0.7,0.4-1.3,0.7-2,1C293.4,120.7,293.3,120.7,293.3,120.7z
		 M234.6,119.9c-0.1,0-0.2,0-0.3-0.1c-0.7-0.3-1.3-0.7-2-1.1c-0.3-0.2-0.4-0.5-0.2-0.8c0.2-0.3,0.5-0.4,0.8-0.2
		c0.6,0.4,1.3,0.7,1.9,1.1c0.3,0.1,0.4,0.5,0.2,0.7C235,119.8,234.8,119.9,234.6,119.9z M297.2,118.6c-0.2,0-0.4-0.1-0.5-0.3
		c-0.2-0.3-0.1-0.6,0.2-0.8c0.6-0.4,1.3-0.8,1.9-1.2c0.3-0.2,0.6-0.1,0.8,0.2c0.2,0.3,0.1,0.6-0.2,0.8c-0.6,0.4-1.3,0.8-1.9,1.2
		C297.4,118.6,297.3,118.6,297.2,118.6z M230.7,117.7c-0.1,0-0.2,0-0.3-0.1c-0.6-0.4-1.3-0.8-1.9-1.2c-0.3-0.2-0.3-0.5-0.1-0.8
		c0.2-0.3,0.5-0.3,0.8-0.1c0.6,0.4,1.2,0.8,1.9,1.2c0.3,0.2,0.3,0.5,0.2,0.8C231.1,117.6,230.9,117.7,230.7,117.7z M300.9,116.2
		c-0.2,0-0.3-0.1-0.5-0.2c-0.2-0.2-0.1-0.6,0.1-0.8c0.6-0.4,1.2-0.9,1.8-1.3c0.2-0.2,0.6-0.2,0.8,0.1c0.2,0.2,0.2,0.6-0.1,0.8
		c-0.6,0.5-1.2,0.9-1.8,1.4C301.2,116.1,301.1,116.2,300.9,116.2z M227,115.2c-0.1,0-0.2,0-0.3-0.1c-0.6-0.4-1.2-0.9-1.8-1.4
		c-0.2-0.2-0.3-0.5-0.1-0.8c0.2-0.2,0.6-0.3,0.8-0.1c0.6,0.5,1.2,0.9,1.8,1.3c0.2,0.2,0.3,0.5,0.1,0.8
		C227.4,115.1,227.2,115.2,227,115.2z M304.4,113.4c-0.2,0-0.3-0.1-0.4-0.2c-0.2-0.2-0.2-0.6,0-0.8c0.6-0.5,1.1-1,1.6-1.5
		c0.2-0.2,0.6-0.2,0.8,0c0.2,0.2,0.2,0.6,0,0.8c-0.5,0.5-1.1,1-1.7,1.5C304.7,113.4,304.6,113.4,304.4,113.4z M223.5,112.4
		c-0.1,0-0.3,0-0.4-0.1c-0.6-0.5-1.1-0.9-1.7-1.4c-0.2-0.2-0.3-0.5-0.1-0.8c0.2-0.2,0.6-0.3,0.8-0.1c0.6,0.5,1.2,0.9,1.7,1.4
		c0.2,0.2,0.3,0.5,0.1,0.8C223.8,112.3,223.7,112.4,223.5,112.4z M307.7,110.3c-0.1,0-0.3,0-0.4-0.1c-0.2-0.2-0.2-0.6,0-0.8
		c0.5-0.5,1-1.1,1.5-1.6c0.2-0.2,0.6-0.3,0.8-0.1c0.2,0.2,0.3,0.5,0.1,0.8c-0.5,0.6-1,1.1-1.5,1.7
		C308,110.3,307.8,110.3,307.7,110.3z M220,109.6c-0.1,0-0.2,0-0.3-0.1c-0.6-0.5-1.2-0.9-1.8-1.3c-0.2-0.2-0.3-0.5-0.1-0.8
		c0.2-0.2,0.5-0.3,0.8-0.1c0.6,0.4,1.2,0.9,1.8,1.3c0.2,0.2,0.3,0.5,0.1,0.8C220.4,109.6,220.2,109.6,220,109.6z M216.4,107
		c-0.1,0-0.2,0-0.3-0.1c-0.6-0.4-1.2-0.9-1.8-1.3c-0.3-0.2-0.3-0.5-0.1-0.8c0.2-0.2,0.5-0.3,0.8-0.1c0.6,0.4,1.2,0.9,1.8,1.3
		c0.3,0.2,0.3,0.5,0.1,0.8C216.8,106.9,216.6,107,216.4,107z M310.5,106.9c-0.1,0-0.2,0-0.3-0.1c-0.2-0.2-0.3-0.5-0.1-0.8
		c0.4-0.6,0.9-1.2,1.3-1.8c0.2-0.3,0.5-0.3,0.8-0.2c0.3,0.2,0.3,0.5,0.2,0.8c-0.4,0.6-0.9,1.2-1.3,1.8
		C310.9,106.9,310.7,106.9,310.5,106.9z M212.7,104.4c-0.1,0-0.2,0-0.3-0.1c-0.6-0.4-1.2-0.8-1.9-1.2c-0.3-0.2-0.3-0.5-0.2-0.8
		c0.2-0.3,0.5-0.3,0.8-0.2c0.6,0.4,1.3,0.8,1.9,1.2c0.3,0.2,0.3,0.5,0.1,0.8C213.1,104.4,212.9,104.4,212.7,104.4z M313,103.2
		c-0.1,0-0.2,0-0.3-0.1c-0.3-0.2-0.4-0.5-0.2-0.8c0.4-0.6,0.7-1.3,1-1.9c0.1-0.3,0.5-0.4,0.8-0.2c0.3,0.1,0.4,0.5,0.3,0.7
		c-0.3,0.7-0.7,1.3-1.1,2C313.4,103.2,313.2,103.2,313,103.2z M209,102c-0.1,0-0.2,0-0.3-0.1c-0.6-0.4-1.3-0.8-1.9-1.2
		c-0.3-0.2-0.3-0.5-0.2-0.8c0.2-0.3,0.5-0.3,0.8-0.2c0.6,0.4,1.3,0.8,1.9,1.2c0.3,0.2,0.3,0.5,0.2,0.8
		C209.4,101.9,209.2,102,209,102z M205.2,99.7c-0.1,0-0.2,0-0.3-0.1c-0.6-0.4-1.3-0.8-1.9-1.1c-0.3-0.2-0.4-0.5-0.2-0.8
		c0.2-0.3,0.5-0.3,0.8-0.2c0.6,0.4,1.3,0.8,1.9,1.1c0.3,0.2,0.4,0.5,0.2,0.8C205.5,99.6,205.4,99.7,205.2,99.7z M315,99.3
		c-0.1,0-0.1,0-0.2,0c-0.3-0.1-0.4-0.4-0.3-0.7c0.3-0.7,0.6-1.3,0.8-2c0.1-0.3,0.4-0.4,0.7-0.3c0.3,0.1,0.4,0.4,0.3,0.7
		c-0.3,0.7-0.5,1.4-0.8,2.1C315.4,99.2,315.2,99.3,315,99.3z M201.3,97.4c-0.1,0-0.2,0-0.3-0.1c-0.7-0.4-1.3-0.7-2-1.1
		c-0.3-0.1-0.4-0.5-0.2-0.7c0.2-0.3,0.5-0.4,0.8-0.2c0.7,0.4,1.3,0.7,2,1.1c0.3,0.2,0.4,0.5,0.2,0.8
		C201.7,97.3,201.5,97.4,201.3,97.4z M197.4,95.3c-0.1,0-0.2,0-0.3-0.1c-0.7-0.4-1.3-0.7-2-1c-0.3-0.1-0.4-0.5-0.2-0.7
		c0.1-0.3,0.5-0.4,0.8-0.2c0.7,0.3,1.3,0.7,2,1c0.3,0.1,0.4,0.5,0.2,0.7C197.7,95.2,197.6,95.3,197.4,95.3z M316.5,95.2
		c-0.1,0-0.1,0-0.2,0c-0.3-0.1-0.5-0.4-0.4-0.7c0.2-0.7,0.4-1.4,0.6-2.1c0.1-0.3,0.4-0.5,0.7-0.4c0.3,0.1,0.5,0.4,0.4,0.7
		c-0.2,0.7-0.4,1.5-0.6,2.2C317,95,316.8,95.2,316.5,95.2z M193.4,93.2c-0.1,0-0.2,0-0.3-0.1c-0.7-0.3-1.3-0.7-2-1
		c-0.3-0.1-0.4-0.5-0.2-0.7c0.1-0.3,0.5-0.4,0.8-0.2c0.7,0.3,1.3,0.7,2,1c0.3,0.1,0.4,0.5,0.2,0.7C193.8,93.1,193.6,93.2,193.4,93.2
		z M189.4,91.2c-0.1,0-0.2,0-0.2-0.1c-0.7-0.3-1.4-0.7-2-1c-0.3-0.1-0.4-0.5-0.3-0.7c0.1-0.3,0.5-0.4,0.8-0.3c0.7,0.3,1.3,0.6,2,1
		c0.3,0.1,0.4,0.5,0.3,0.7C189.8,91.1,189.6,91.2,189.4,91.2z M317.5,90.9C317.5,90.9,317.4,90.9,317.5,90.9
		c-0.4-0.1-0.6-0.3-0.6-0.6c0.1-0.7,0.2-1.4,0.3-2.1c0-0.3,0.3-0.5,0.6-0.5c0.3,0,0.5,0.3,0.5,0.6c-0.1,0.7-0.2,1.5-0.3,2.2
		C318,90.7,317.8,90.9,317.5,90.9z M185.3,89.3c-0.1,0-0.2,0-0.2-0.1c-0.7-0.3-1.4-0.6-2-0.9c-0.3-0.1-0.4-0.5-0.3-0.7
		c0.1-0.3,0.5-0.4,0.7-0.3c0.7,0.3,1.4,0.6,2,0.9c0.3,0.1,0.4,0.5,0.3,0.7C185.7,89.2,185.5,89.3,185.3,89.3z M181.2,87.4
		c-0.1,0-0.2,0-0.2,0c-0.7-0.3-1.4-0.6-2.1-0.9c-0.3-0.1-0.4-0.4-0.3-0.7c0.1-0.3,0.5-0.4,0.7-0.3c0.7,0.3,1.4,0.6,2.1,0.9
		c0.3,0.1,0.4,0.5,0.3,0.7C181.6,87.3,181.4,87.4,181.2,87.4z M318,86.5C318,86.5,318,86.5,318,86.5c-0.3,0-0.6-0.3-0.6-0.6
		c0-0.3,0-0.5,0-0.8c0-0.3,0.3-0.5,0.6-0.5c0,0,0,0,0,0c0.3,0,0.6,0.3,0.5,0.6c0,0.3,0,0.6,0,0.8C318.5,86.3,318.3,86.5,318,86.5z
		 M177.1,85.7c-0.1,0-0.1,0-0.2,0c-0.7-0.3-1.4-0.6-2.1-0.9c-0.3-0.1-0.4-0.4-0.3-0.7c0.1-0.3,0.4-0.4,0.7-0.3
		c0.7,0.3,1.4,0.6,2.1,0.9c0.3,0.1,0.4,0.4,0.3,0.7C177.5,85.6,177.3,85.7,177.1,85.7z M172.9,84c-0.1,0-0.1,0-0.2,0
		c-0.8-0.3-1.5-0.6-2.1-0.8c-0.3-0.1-0.4-0.4-0.3-0.7s0.4-0.4,0.7-0.3c0.6,0.2,1.3,0.5,2.1,0.8c0.3,0.1,0.4,0.4,0.3,0.7
		C173.3,83.9,173.1,84,172.9,84z M168.7,82.4c-0.1,0-0.1,0-0.2,0c-1.4-0.5-2.1-0.8-2.1-0.8c-0.3-0.1-0.4-0.4-0.3-0.7
		c0.1-0.3,0.4-0.4,0.7-0.3c0,0,0.8,0.3,2.1,0.8c0.3,0.1,0.4,0.4,0.3,0.7C169.2,82.2,168.9,82.4,168.7,82.4z"/>
	
		<rect x="315.3" y="81.3" transform="matrix(-6.394842e-02 0.998 -0.998 -6.394842e-02 422.351 -228.2948)" class="st5" width="5.9" height="5.3"/>
	<rect x="319.9" y="36.7" transform="matrix(-0.5 0.866 -0.866 -0.5 518.3351 -220.6353)" class="st7" width="5.9" height="5.3"/>
	<linearGradient id="SVGID_7_" gradientUnits="userSpaceOnUse" x1="220.1802" y1="79.4838" x2="347.7528" y2="79.4838">
		<stop  offset="0" style="stop-color:#78BE20"/>
		<stop  offset="1" style="stop-color:#DDDDDE;stop-opacity:0.1"/>
	</linearGradient>
	<path class="st9" d="M220.7,126.5c-0.3,0-0.5-0.2-0.6-0.5c-0.4-31.1,8.8-54.9,27.4-70.8c36.9-31.5,99-21,99.7-20.9
		c0.3,0.1,0.5,0.3,0.4,0.6c-0.1,0.3-0.3,0.5-0.6,0.4c-0.6-0.1-62.2-10.5-98.8,20.6c-18.4,15.7-27.5,39.2-27,69.9
		C221.3,126.2,221.1,126.5,220.7,126.5C220.8,126.5,220.7,126.5,220.7,126.5z"/>
	<linearGradient id="SVGID_8_" gradientUnits="userSpaceOnUse" x1="271.3694" y1="55.8004" x2="271.3694" y2="55.8004">
		<stop  offset="0" style="stop-color:#78BE20"/>
		<stop  offset="0.1085" style="stop-color:#5FAB3A"/>
		<stop  offset="0.2815" style="stop-color:#3D915D"/>
		<stop  offset="0.4572" style="stop-color:#227C78"/>
		<stop  offset="0.6344" style="stop-color:#0F6E8C"/>
		<stop  offset="0.8141" style="stop-color:#046597"/>
		<stop  offset="1" style="stop-color:#00629B"/>
	</linearGradient>
	<path class="st10" d="M271.4,55.8"/>
	<linearGradient id="SVGID_9_" gradientUnits="userSpaceOnUse" x1="196.2111" y1="64.4932" x2="196.2111" y2="64.4932">
		<stop  offset="0" style="stop-color:#78BE20"/>
		<stop  offset="0.1085" style="stop-color:#5FAB3A"/>
		<stop  offset="0.2815" style="stop-color:#3D915D"/>
		<stop  offset="0.4572" style="stop-color:#227C78"/>
		<stop  offset="0.6344" style="stop-color:#0F6E8C"/>
		<stop  offset="0.8141" style="stop-color:#046597"/>
		<stop  offset="1" style="stop-color:#00629B"/>
	</linearGradient>
	<path class="st11" d="M196.2,64.5"/>
	
		<rect x="266.2" y="52.5" transform="matrix(-6.394842e-02 0.998 -0.998 -6.394842e-02 341.8033 -209.9776)" class="st5" width="6.3" height="5.7"/>
	
		<linearGradient id="SVGID_10_" gradientUnits="userSpaceOnUse" x1="347.254" y1="242.3362" x2="437.0784" y2="244.3168" gradientTransform="matrix(1.1025 0.1911 0.1911 1.1889 -261.5072 -327.2741)">
		<stop  offset="0.3896" style="stop-color:#00629B"/>
		<stop  offset="0.843" style="stop-color:#C8C9CA"/>
		<stop  offset="1" style="stop-color:#C8C9CA"/>
	</linearGradient>
	<path class="st12" d="M255.1,89.1c-0.2,0-0.4-0.1-0.6-0.3c-0.2-0.3,0-0.7,0.3-0.8c0.7-0.4,1.5-0.8,2.2-1.2c0.3-0.2,0.7-0.1,0.8,0.2
		c0.2,0.3,0.1,0.7-0.2,0.8c-0.7,0.4-1.5,0.8-2.2,1.2C255.3,89.1,255.2,89.1,255.1,89.1z M259.5,86.7c-0.2,0-0.4-0.1-0.5-0.3
		c-0.2-0.3-0.1-0.7,0.2-0.8c0.7-0.4,1.4-0.8,2.1-1.2c0.3-0.2,0.7-0.1,0.9,0.2c0.2,0.3,0.1,0.7-0.2,0.9c-0.7,0.4-1.4,0.8-2.2,1.3
		C259.7,86.7,259.6,86.7,259.5,86.7z M263.8,84.2c-0.2,0-0.4-0.1-0.5-0.3c-0.2-0.3-0.1-0.7,0.2-0.9c0.7-0.4,1.4-0.9,2.1-1.3
		c0.3-0.2,0.7-0.1,0.9,0.2c0.2,0.3,0.1,0.7-0.2,0.9c-0.7,0.4-1.4,0.9-2.1,1.3C264,84.1,263.9,84.2,263.8,84.2z M267.9,81.5
		c-0.2,0-0.4-0.1-0.5-0.3c-0.2-0.3-0.1-0.7,0.2-0.9c0.7-0.5,1.4-0.9,2-1.4c0.3-0.2,0.7-0.1,0.9,0.1c0.2,0.3,0.1,0.7-0.1,0.9
		c-0.7,0.5-1.3,1-2,1.4C268.2,81.4,268,81.5,267.9,81.5z M271.9,78.5c-0.2,0-0.4-0.1-0.5-0.2c-0.2-0.3-0.2-0.7,0.1-0.9
		c0.7-0.5,1.3-1,1.9-1.5c0.3-0.2,0.7-0.2,0.9,0.1c0.2,0.3,0.2,0.7-0.1,0.9c-0.6,0.5-1.3,1-2,1.6C272.2,78.5,272.1,78.5,271.9,78.5z
		 M275.8,75.4c-0.2,0-0.3-0.1-0.5-0.2c-0.2-0.3-0.2-0.7,0.1-0.9c0.6-0.5,1.2-1.1,1.8-1.6c0.2-0.2,0.6-0.2,0.9,0
		c0.2,0.3,0.2,0.6,0,0.9c-0.6,0.6-1.2,1.1-1.9,1.7C276.1,75.3,275.9,75.4,275.8,75.4z M279.4,72c-0.2,0-0.3-0.1-0.4-0.2
		c-0.2-0.2-0.2-0.6,0-0.9c0.6-0.6,1.2-1.2,1.7-1.8c0.2-0.3,0.6-0.3,0.9,0c0.3,0.2,0.3,0.6,0,0.9c-0.6,0.6-1.1,1.2-1.7,1.8
		C279.8,72,279.6,72,279.4,72z M282.8,68.4c-0.1,0-0.3,0-0.4-0.1c-0.3-0.2-0.3-0.6-0.1-0.9c0.5-0.6,1.1-1.3,1.5-1.9
		c0.2-0.3,0.6-0.3,0.9-0.1c0.3,0.2,0.3,0.6,0.1,0.9c-0.5,0.7-1,1.3-1.6,1.9C283.2,68.3,283,68.4,282.8,68.4z M285.8,64.4
		c-0.1,0-0.2,0-0.4-0.1c-0.3-0.2-0.3-0.6-0.2-0.9c0.5-0.7,0.9-1.4,1.4-2c0.2-0.3,0.6-0.4,0.9-0.2c0.3,0.2,0.4,0.6,0.2,0.9
		c-0.4,0.7-0.9,1.4-1.4,2.1C286.2,64.3,286,64.4,285.8,64.4z M288.5,60.2c-0.1,0-0.2,0-0.3-0.1c-0.3-0.2-0.4-0.5-0.2-0.8
		c0.4-0.7,0.8-1.5,1.1-2.2c0.1-0.3,0.5-0.4,0.8-0.3c0.3,0.1,0.4,0.5,0.3,0.8c-0.4,0.7-0.7,1.5-1.2,2.2
		C288.9,60.1,288.7,60.2,288.5,60.2z M290.6,55.8c-0.1,0-0.2,0-0.2,0c-0.3-0.1-0.5-0.5-0.3-0.8c0.3-0.7,0.6-1.5,0.8-2.3
		c0.1-0.3,0.5-0.5,0.8-0.4c0.3,0.1,0.5,0.5,0.4,0.8c-0.3,0.8-0.6,1.6-0.9,2.4C291.1,55.6,290.9,55.8,290.6,55.8z M292.2,51
		c-0.1,0-0.1,0-0.2,0c-0.3-0.1-0.5-0.4-0.4-0.8c0.2-0.8,0.4-1.6,0.5-2.4c0.1-0.3,0.4-0.6,0.7-0.5c0.3,0.1,0.6,0.4,0.5,0.7
		c-0.2,0.8-0.3,1.6-0.6,2.5C292.7,50.9,292.5,51,292.2,51z M293.1,46.2C293.1,46.2,293.1,46.2,293.1,46.2c-0.4,0-0.7-0.4-0.6-0.7
		c0.1-0.8,0.2-1.6,0.2-2.4c0-0.3,0.3-0.6,0.7-0.6c0.3,0,0.6,0.3,0.6,0.7c0,0.8-0.1,1.7-0.2,2.5C293.7,45.9,293.4,46.2,293.1,46.2z
		 M199.4,45.8c-0.1,0-0.2,0-0.3-0.1c-0.3-0.2-0.4-0.5-0.3-0.8l0.8-1.6c0.2-0.3,0.5-0.4,0.8-0.3c0.3,0.2,0.4,0.5,0.3,0.8l-0.8,1.5
		C199.8,45.7,199.6,45.8,199.4,45.8z M201.4,42.1c-0.1,0-0.2,0-0.3-0.1c-0.3-0.2-0.4-0.5-0.2-0.8c0.4-0.7,0.8-1.4,1.2-2.2
		c0.2-0.3,0.5-0.4,0.8-0.2c0.3,0.2,0.4,0.6,0.2,0.8c-0.4,0.8-0.8,1.5-1.2,2.2C201.8,42,201.6,42.1,201.4,42.1z M293.3,41.2
		c-0.3,0-0.6-0.3-0.6-0.6c0-0.8-0.1-1.6-0.1-2.4c0-0.3,0.2-0.6,0.6-0.7c0.3,0,0.6,0.2,0.7,0.6c0.1,0.8,0.1,1.7,0.1,2.5
		C294,40.9,293.7,41.2,293.3,41.2C293.3,41.2,293.3,41.2,293.3,41.2z M203.9,37.8c-0.1,0-0.2,0-0.3-0.1c-0.3-0.2-0.4-0.6-0.2-0.9
		c0.4-0.7,0.9-1.4,1.3-2.1c0.2-0.3,0.6-0.4,0.9-0.2c0.3,0.2,0.4,0.6,0.2,0.9c-0.5,0.7-0.9,1.4-1.3,2.1
		C204.3,37.7,204.1,37.8,203.9,37.8z M292.9,36.3c-0.3,0-0.6-0.2-0.6-0.5c-0.1-0.8-0.3-1.6-0.5-2.4c-0.1-0.3,0.1-0.7,0.5-0.7
		c0.3-0.1,0.7,0.1,0.7,0.5c0.2,0.8,0.3,1.6,0.5,2.5C293.6,35.9,293.3,36.2,292.9,36.3C293,36.2,292.9,36.3,292.9,36.3z M206.5,33.6
		c-0.1,0-0.2,0-0.3-0.1c-0.3-0.2-0.4-0.6-0.2-0.9c0.4-0.7,0.9-1.4,1.4-2.1c0.2-0.3,0.6-0.4,0.9-0.2c0.3,0.2,0.4,0.6,0.2,0.9
		c-0.5,0.7-0.9,1.4-1.4,2.1C207,33.5,206.8,33.6,206.5,33.6z M291.8,31.4c-0.3,0-0.5-0.2-0.6-0.4c-0.2-0.8-0.5-1.6-0.7-2.3
		c-0.1-0.3,0.1-0.7,0.4-0.8c0.3-0.1,0.7,0.1,0.8,0.4c0.3,0.8,0.5,1.6,0.8,2.4c0.1,0.3-0.1,0.7-0.4,0.8
		C291.9,31.4,291.9,31.4,291.8,31.4z M209.4,29.4c-0.1,0-0.3,0-0.4-0.1c-0.3-0.2-0.3-0.6-0.1-0.9c0.5-0.7,1-1.3,1.5-2
		c0.2-0.3,0.6-0.3,0.9-0.1c0.3,0.2,0.3,0.6,0.1,0.9c-0.5,0.7-1,1.3-1.5,2C209.7,29.4,209.6,29.4,209.4,29.4z M290.2,26.7
		c-0.2,0-0.5-0.1-0.6-0.4c-0.3-0.8-0.7-1.5-1-2.2c-0.1-0.3,0-0.7,0.3-0.8c0.3-0.1,0.7,0,0.8,0.3c0.4,0.7,0.7,1.5,1,2.3
		c0.1,0.3,0,0.7-0.3,0.8C290.3,26.7,290.3,26.7,290.2,26.7z M212.3,25.5c-0.1,0-0.3,0-0.4-0.1c-0.3-0.2-0.3-0.6-0.1-0.9
		c0.5-0.6,1-1.3,1.6-2c0.2-0.3,0.6-0.3,0.9-0.1c0.3,0.2,0.3,0.6,0.1,0.9c-0.5,0.6-1,1.3-1.5,1.9C212.7,25.4,212.5,25.5,212.3,25.5z
		 M288,22.2c-0.2,0-0.4-0.1-0.5-0.3c-0.4-0.7-0.8-1.4-1.2-2.1c-0.2-0.3-0.1-0.7,0.2-0.9c0.3-0.2,0.7-0.1,0.9,0.2
		c0.4,0.7,0.9,1.4,1.3,2.2c0.2,0.3,0.1,0.7-0.2,0.8C288.2,22.2,288.1,22.2,288,22.2z M215.5,21.6c-0.1,0-0.3,0-0.4-0.2
		c-0.3-0.2-0.3-0.6-0.1-0.9c0.5-0.6,1.1-1.2,1.7-1.9c0.2-0.3,0.6-0.3,0.9,0c0.3,0.2,0.3,0.6,0,0.9c-0.6,0.6-1.1,1.2-1.6,1.8
		C215.8,21.5,215.7,21.6,215.5,21.6z M285.4,18c-0.2,0-0.4-0.1-0.5-0.3c-0.5-0.7-1-1.3-1.4-2c-0.2-0.3-0.2-0.7,0.1-0.9
		c0.3-0.2,0.7-0.2,0.9,0.1c0.5,0.7,1,1.3,1.5,2c0.2,0.3,0.1,0.7-0.2,0.9C285.6,18,285.5,18,285.4,18z M218.9,18
		c-0.2,0-0.3-0.1-0.4-0.2c-0.2-0.2-0.3-0.6,0-0.9c0.6-0.6,1.2-1.2,1.8-1.8c0.2-0.2,0.6-0.2,0.9,0c0.2,0.2,0.2,0.6,0,0.9
		c-0.6,0.6-1.2,1.2-1.7,1.7C219.2,17.9,219,18,218.9,18z M222.4,14.5c-0.2,0-0.3-0.1-0.5-0.2c-0.2-0.3-0.2-0.6,0-0.9
		c0.6-0.6,1.3-1.1,1.9-1.7c0.3-0.2,0.7-0.2,0.9,0.1s0.2,0.7-0.1,0.9c-0.6,0.5-1.3,1.1-1.9,1.6C222.7,14.4,222.6,14.5,222.4,14.5z
		 M282.4,14.1c-0.2,0-0.3-0.1-0.5-0.2c-0.5-0.6-1.1-1.2-1.6-1.8c-0.2-0.2-0.2-0.6,0-0.9c0.2-0.2,0.6-0.2,0.9,0
		c0.6,0.6,1.1,1.2,1.7,1.9c0.2,0.3,0.2,0.7-0.1,0.9C282.7,14,282.5,14.1,282.4,14.1z M226.3,11.3c-0.2,0-0.4-0.1-0.5-0.2
		c-0.2-0.3-0.2-0.7,0.1-0.9c0.7-0.5,1.3-1,2-1.5c0.3-0.2,0.7-0.1,0.9,0.1c0.2,0.3,0.1,0.7-0.1,0.9c-0.7,0.5-1.3,1-2,1.5
		C226.5,11.2,226.4,11.3,226.3,11.3z M278.9,10.5c-0.2,0-0.3-0.1-0.4-0.2c-0.6-0.6-1.2-1.1-1.8-1.6c-0.3-0.2-0.3-0.6-0.1-0.9
		c0.2-0.3,0.6-0.3,0.9-0.1c0.6,0.5,1.3,1.1,1.9,1.6c0.3,0.2,0.3,0.6,0,0.9C279.3,10.4,279.1,10.5,278.9,10.5z M230.3,8.4
		c-0.2,0-0.4-0.1-0.5-0.3c-0.2-0.3-0.1-0.7,0.2-0.9c0.7-0.5,1.4-0.9,2.1-1.3c0.3-0.2,0.7-0.1,0.9,0.2c0.2,0.3,0.1,0.7-0.2,0.9
		c-0.7,0.4-1.4,0.8-2.1,1.3C230.5,8.4,230.4,8.4,230.3,8.4z M274.9,7.6c-0.1,0-0.2,0-0.3-0.1c-0.7-0.4-1.4-0.8-2.2-1.2
		c-0.3-0.2-0.4-0.5-0.3-0.8c0.2-0.3,0.5-0.4,0.8-0.3c0.7,0.4,1.5,0.8,2.2,1.2c0.3,0.2,0.4,0.5,0.2,0.8
		C275.4,7.4,275.1,7.6,274.9,7.6z M234.6,5.9c-0.2,0-0.4-0.1-0.6-0.3c-0.2-0.3,0-0.7,0.3-0.8c0.7-0.4,1.5-0.8,2.3-1.1
		c0.3-0.1,0.7,0,0.8,0.3c0.1,0.3,0,0.7-0.3,0.8c-0.7,0.3-1.5,0.7-2.2,1.1C234.8,5.9,234.7,5.9,234.6,5.9z M270.5,5.3
		c-0.1,0-0.2,0-0.3-0.1c-0.8-0.3-1.5-0.7-2.3-1c-0.3-0.1-0.5-0.5-0.3-0.8c0.1-0.3,0.5-0.5,0.8-0.3c0.8,0.3,1.5,0.6,2.3,1
		c0.3,0.1,0.4,0.5,0.3,0.8C271,5.2,270.7,5.3,270.5,5.3z M239.1,3.9c-0.2,0-0.5-0.2-0.6-0.4c-0.1-0.3,0-0.7,0.4-0.8
		c0.8-0.3,1.6-0.6,2.4-0.8c0.3-0.1,0.7,0.1,0.8,0.4c0.1,0.3-0.1,0.7-0.4,0.8c-0.8,0.2-1.6,0.5-2.3,0.8
		C239.3,3.8,239.2,3.9,239.1,3.9z M265.9,3.5c-0.1,0-0.1,0-0.2,0c-0.8-0.3-1.6-0.5-2.3-0.7c-0.3-0.1-0.5-0.4-0.4-0.8
		c0.1-0.3,0.4-0.5,0.8-0.4c0.8,0.2,1.6,0.5,2.4,0.7c0.3,0.1,0.5,0.5,0.4,0.8C266.4,3.3,266.1,3.5,265.9,3.5z M243.9,2.4
		c-0.3,0-0.5-0.2-0.6-0.5c-0.1-0.3,0.1-0.7,0.5-0.8c0.8-0.2,1.6-0.4,2.5-0.5c0.3-0.1,0.7,0.2,0.7,0.5c0.1,0.3-0.2,0.7-0.5,0.7
		c-0.8,0.1-1.6,0.3-2.4,0.5C244,2.4,243.9,2.4,243.9,2.4z M261.1,2.1c0,0-0.1,0-0.1,0c-0.8-0.2-1.6-0.3-2.4-0.4
		C258.2,1.6,258,1.3,258,1c0.1-0.3,0.4-0.6,0.7-0.5c0.8,0.1,1.7,0.3,2.5,0.5c0.3,0.1,0.5,0.4,0.5,0.7C261.6,1.9,261.4,2.1,261.1,2.1
		z M248.8,1.5c-0.3,0-0.6-0.2-0.6-0.6c0-0.3,0.2-0.6,0.5-0.7c0.8-0.1,1.7-0.2,2.5-0.2c0.3,0,0.6,0.2,0.6,0.6c0,0.3-0.3,0.6-0.6,0.6
		C250.4,1.3,249.6,1.4,248.8,1.5C248.8,1.5,248.8,1.5,248.8,1.5z M256.2,1.4C256.2,1.4,256.2,1.4,256.2,1.4
		c-0.9-0.1-1.7-0.1-2.5-0.1c-0.3,0-0.6-0.3-0.6-0.6c0-0.3,0.3-0.7,0.6-0.6c0.8,0,1.7,0.1,2.5,0.1c0.3,0,0.6,0.3,0.6,0.7
		C256.8,1.1,256.5,1.4,256.2,1.4z"/>
	
		<rect x="197" y="42.8" transform="matrix(-0.4199 0.9076 -0.9076 -0.4199 324.4521 -116.9929)" class="st5" width="5.2" height="4.7"/>
	<path class="st7" d="M276.7,117.7"/>
	<g>
		<linearGradient id="SVGID_11_" gradientUnits="userSpaceOnUse" x1="246.4284" y1="108.0864" x2="248.5899" y2="82.9796">
			<stop  offset="0" style="stop-color:#509F48"/>
			<stop  offset="0.1114" style="stop-color:#5AA73E"/>
			<stop  offset="0.3682" style="stop-color:#6BB42D"/>
			<stop  offset="0.6494" style="stop-color:#75BC23"/>
			<stop  offset="0.9981" style="stop-color:#78BE20"/>
		</linearGradient>
		<path class="st13" d="M253.2,19.2c-6.3,8.6-12,25.1-2.9,54.8c0.1,0.3,0.4,0.5,0.8,0.4c0.3-0.1,0.5-0.5,0.4-0.8
			c-8.9-29.2-3.4-45.3,2.7-53.7c2.1-2.8,4.4-5,6.8-6.6c-0.7,0-1.4,0-2.2,0C256.9,14.9,255,16.9,253.2,19.2z"/>
		<linearGradient id="SVGID_12_" gradientUnits="userSpaceOnUse" x1="271.1097" y1="110.2113" x2="273.2712" y2="85.1044">
			<stop  offset="0" style="stop-color:#509F48"/>
			<stop  offset="0.1114" style="stop-color:#5AA73E"/>
			<stop  offset="0.3682" style="stop-color:#6BB42D"/>
			<stop  offset="0.6494" style="stop-color:#75BC23"/>
			<stop  offset="0.9981" style="stop-color:#78BE20"/>
		</linearGradient>
		<path class="st14" d="M288.6,30.5c-3.6-14.2-9.9-21.8-18.3-21.8c-2.2,0-4.8,0.7-7.6,2.2c0.9,0,1.7,0.1,2.6,0.2
			c1.8-0.7,3.6-1.1,5-1.1c9.8,0,14.7,11.3,17.1,20.8c7.1,28,1.3,76.6-9.8,82.6c-0.3,0.2-0.4,0.5-0.3,0.9c0.1,0.2,0.3,0.3,0.6,0.3
			c0.1,0,0.2,0,0.3-0.1C289.9,108.2,295.9,59.5,288.6,30.5z"/>
	</g>
	<g>
		<path class="st5" d="M135.7,216.7c2.4,1.1,4.6,1.9,7.1,1.9c3.8,0,6.5-2.1,6.5-5.2c0-7.5-13.4-5.3-13.4-14.6c0-5.2,4.3-7.5,8.2-7.5
			c2.3,0,4.5,0.5,6.7,1.5l-0.8,2.2c-2-0.8-3.8-1.3-5.9-1.3c-3.6,0-5.6,2.1-5.6,5.1c0,7.1,13.4,5.4,13.4,14.6c0,4.6-3.9,7.6-9.1,7.6
			c-2.6,0-5.2-0.7-7.8-2.1L135.7,216.7z"/>
		<path class="st5" d="M155.1,210.2c0-5.9,4.3-10.8,10.2-10.8c6,0,10.2,4.9,10.2,10.8s-4.3,10.7-10.2,10.7
			C159.3,221,155.1,216.1,155.1,210.2z M173.1,210.2c0-4.6-3.1-8.5-7.8-8.5c-4.7,0-7.8,3.8-7.8,8.5s3.1,8.4,7.8,8.4
			C170,218.7,173.1,214.9,173.1,210.2z"/>
		<path class="st5" d="M196.1,219.5c-2.3,1.1-4.5,1.4-6.8,1.4c-6.6,0-10.5-4.9-10.5-10.8c0-5.9,3.9-10.7,10.5-10.7
			c2.3,0,4.6,0.5,6.9,1.4l-0.7,2.1c-2.1-0.8-4.1-1.2-6.1-1.2c-5.3,0-8.1,4-8.1,8.4c0,4.4,2.8,8.5,8.1,8.5c2.1,0,4-0.6,6.1-1.4
			L196.1,219.5z"/>
		<path class="st5" d="M202.3,191.5c1,0,1.7,0.7,1.7,1.7s-0.8,1.7-1.7,1.7c-1,0-1.7-0.7-1.7-1.7S201.2,191.5,202.3,191.5z
			 M201.1,200h2.4v20.4h-2.4V200z"/>
		<path class="st5" d="M225.5,219.7c-2.2,0.9-4.3,1.2-6.5,1.2c-6.3,0-10.2-4.8-10.2-10.7c0-5.9,3.9-10.8,9.5-10.8c6.4,0,9,5,9,10.7
			h-16.1c0,4.8,2.8,8.5,7.8,8.5c2.1,0,4-0.5,6.1-1.2L225.5,219.7z M224.8,208.1c-0.6-4.3-3.1-6.3-6.5-6.3c-3.2,0-6.1,2-6.9,6.3
			H224.8z"/>
		<path class="st5" d="M233.1,202.1h-2.9V200h2.9v-5.2l2.4-1.1v6.3h5.1v2.1h-5.1v12.4c0,2.7,1.2,4.2,3.8,4.2c0.8,0,1.6-0.1,2.4-0.4
			l0.5,2.2c-1,0.3-2.1,0.5-3.1,0.5c-3.4,0-6-2.1-6-6.3V202.1z"/>
		<path class="st5" d="M247.4,227.7c1.5,0,2.6-0.9,3.3-3.1l1.4-4.2h-0.8l-7.2-20.4h2.5l5.2,15.1c0.3,0.9,0.7,2.2,1,3.4
			c0.3-1.2,0.7-2.5,1-3.4l4.9-15.1h2.5l-8.4,25.7c-0.9,2.9-3.1,4.3-5.5,4.3c-1.3,0-2.6-0.2-3.8-0.8l0.7-2.2
			C245.3,227.5,246.3,227.7,247.4,227.7z"/>
	</g>
	<g>
		<g>
			<path class="st5" d="M12.6,69.7H7.8c-1.1,0-5.6,0.2-5.6,0.2L2,69.5c0.2-5.4,0.3-10.7,0.3-16.1v-4.1c0-6.7-0.1-13.5-0.5-20.2
				L2,28.8h4c1.9,0,5.3-0.1,6.5-0.2l0.2,0.3c-0.2,7.9-0.3,15.9-0.3,23.9c0,5.5,0.1,11,0.4,16.4L12.6,69.7z"/>
			<path class="st5" d="M47.9,62.3c-0.2,2.4-0.3,4.9-0.4,7.1l-0.5,0.3c-8.5,0-17,0.1-25.5,0.1l-0.3-0.4c0.2-5.3,0.3-10.7,0.3-16v-12
				c0-4.1-0.1-8.2-0.4-12.2l0.3-0.3c6.3,0,21.6-0.1,25.4-0.1l0.3,0.3c-0.2,2.4-0.3,4.5-0.4,6.7l-0.3,0.3c-5-0.1-9.9-0.2-14.8-0.2
				c0,1.1-0.1,2.7-0.1,4.3c0,1.9,0,3.7,0.1,4.9c4.7,0,9.3-0.1,14-0.2l0.3,0.4c-0.2,2.2-0.3,4.3-0.4,6.5l-0.3,0.3
				c-8.5-0.1-13.5-0.1-13.5-0.1c0,3.4,0.1,6.8,0.1,10.1c5.3,0,10.6-0.1,15.9-0.4L47.9,62.3z"/>
			<path class="st5" d="M80.5,62.3c-0.2,2.4-0.3,4.9-0.4,7.1l-0.5,0.3c-8.5,0-17,0.1-25.5,0.1l-0.3-0.4c0.2-5.3,0.3-10.7,0.3-16v-12
				c0-4.1-0.1-8.2-0.4-12.2l0.3-0.3c6.3,0,21.6-0.1,25.4-0.1l0.3,0.3c-0.2,2.4-0.3,4.5-0.4,6.7L79,36.1C74,36,69.1,36,64.2,36
				c0,1.1-0.1,2.7-0.1,4.3c0,1.9,0,3.7,0.1,4.9c4.7,0,9.3-0.1,14-0.2l0.3,0.4c-0.2,2.2-0.3,4.3-0.4,6.5l-0.3,0.3
				c-8.5-0.1-13.5-0.1-13.5-0.1c0,3.4,0.1,6.8,0.1,10.1c5.3,0,10.6-0.1,15.9-0.4L80.5,62.3z"/>
			<path class="st5" d="M113,62.3c-0.2,2.4-0.3,4.9-0.4,7.1l-0.5,0.3c-8.5,0-17,0.1-25.5,0.1l-0.3-0.4c0.2-5.3,0.3-10.7,0.3-16v-12
				c0-4.1-0.1-8.2-0.4-12.2l0.3-0.3c6.3,0,21.6-0.1,25.4-0.1l0.3,0.3c-0.2,2.4-0.3,4.5-0.4,6.7l-0.3,0.3c-5-0.1-9.9-0.2-14.8-0.2
				c0,1.1-0.1,2.7-0.1,4.3c0,1.9,0,3.7,0.1,4.9c4.7,0,9.3-0.1,14-0.2l0.3,0.4c-0.2,2.2-0.3,4.3-0.4,6.5l-0.3,0.3
				c-8.5-0.1-13.5-0.1-13.5-0.1c0,3.4,0.1,6.8,0.1,10.1c5.3,0,10.6-0.1,15.9-0.4L113,62.3z"/>
		</g>
	</g>
	<g>
		<g>
			<path class="st7" d="M2.2,116.8c3.9,1.9,7.8,3.1,11.9,3.1c4.7,0,7.7-2.5,7.7-6.3c0-9.4-20.4-7.2-20.4-22.7c0-8.4,7-13.3,15-13.3
				c4.3,0,8,1,12.1,2.8l-2.3,6.5c-3.4-1.4-6.4-2.2-9.8-2.2c-4.4,0-6.6,2.5-6.6,6.2c0,9,20.4,7.6,20.4,22.7c0,8.1-7.1,13.4-16.1,13.4
				c-4.8,0-9.3-1.2-14.1-3.6L2.2,116.8z"/>
			<path class="st7" d="M39.4,76.3c2.4,0,4.7,1.9,4.7,4.5s-2.2,4.6-4.7,4.6c-2.7,0-4.6-2-4.6-4.6S36.9,76.3,39.4,76.3z M35.6,91.4
				h7.7v34.7h-7.7V91.4z"/>
			<path class="st7" d="M54.7,132.9c3.4,1.6,6.8,2.3,10.4,2.3c6.5,0,9.7-4.3,9.7-10.4v-3.2c-2.5,2.8-5.9,4.5-10.2,4.5
				c-10,0-16.2-8.4-16.2-17.8s6.3-17.8,16.2-17.8c4.5,0,8,1.8,10.5,4.7l0.4-3.8l7,0.7v33.6c0,9.6-7.1,16.3-17.4,16.3
				c-4.3,0-8.4-0.8-12.7-3L54.7,132.9z M75.3,108.3c0-6.7-4.3-11-9.8-11c-5.7,0-9.1,4.7-9.1,11c0,6.2,3.3,11,9.1,11
				C70.6,119.3,75.3,115.4,75.3,108.3z"/>
			<path class="st7" d="M89.1,92.1l6.6-0.7l0.7,4.5c2.5-3.6,6.3-5.4,11-5.4c6.9,0,11.5,5.1,11.5,13.3v22.3h-7.7v-21.3
				c0-4.3-1.6-7.5-5.4-7.5c-5.6,0-9,4.7-9,12.8v16h-7.7V92.1z"/>
			<path class="st7" d="M150.4,122c-2.5,3.1-6,5-10.6,5c-10,0-16.2-8.8-16.2-18.3c0-9.6,6.5-18.2,16.2-18.2c4.3,0,7.7,1.7,10.2,4.5
				v-3.6l7.7,0.7v34h-6.7L150.4,122z M150.5,108.7c0-6.8-4.3-11.3-9.8-11.3c-5.6,0-9.1,5-9.1,11.4c0,6.1,3.3,11.5,9.1,11.5
				C145.9,120.2,150.5,116,150.5,108.7z"/>
			<path class="st7" d="M164.3,76.9l7.7-1.6v42c0,2.1,0.8,3,2.7,3l-0.8,6.7c-5.8,0-9.7-2.1-9.7-8.7V76.9z"/>
			<path class="st7" d="M2.5,135h13.8c9.3,0,16.1,5.3,16.1,14.7s-6.9,14.8-16.2,14.8h-5.8v18.1h-8V135z M15.5,157.6
				c6.8,0,8.9-3.2,8.9-7.9c0-4.9-2.5-7.7-8.7-7.7h-5.2v15.6H15.5z"/>
			<path class="st7" d="M37.2,148.6l6.6-0.7l0.8,4.9c2.3-3.5,5.8-5.8,11.1-5.8v6.8c-7,0-10.9,5.5-10.9,13.4v15.4h-7.7V148.6z"/>
			<path class="st7" d="M57.1,165.3c0-9.8,7.3-18.3,17.9-18.3c10.6,0,17.9,8.4,17.9,18.3c0,9.8-7.1,18.2-17.9,18.2
				C64.3,183.5,57.1,175.1,57.1,165.3z M84.9,165.3c0-6.8-4.5-11.5-9.9-11.5s-9.9,4.7-9.9,11.5c0,6.7,4.4,11.4,9.9,11.4
				C80.6,176.7,84.9,172.1,84.9,165.3z"/>
			<path class="st7" d="M126.6,181c-4,1.9-7.8,2.5-11.7,2.5c-11.5,0-18.4-8.4-18.4-18.3c0-9.9,6.9-18.2,18.4-18.2
				c4.1,0,7.9,0.9,11.9,2.6l-2.2,6.2c-3.2-1.2-6.3-2-9.5-2c-6.7,0-10.6,5.3-10.6,11.4c0,6.2,3.8,11.5,10.6,11.5
				c3.2,0,6.3-0.8,9.5-2.1L126.6,181z"/>
			<path class="st7" d="M159.6,181c-3.9,1.7-7.6,2.5-11.9,2.5c-11.6,0-18.1-8.2-18.1-18.2c0-9.9,6.2-18.3,16.3-18.3
				c10.6,0,15.9,8.2,15.9,19.5h-24.6c0.5,5.6,3.6,10.2,10.6,10.2c3.7,0,6.8-0.8,10.2-2.2L159.6,181z M154.1,161.3
				c-1.1-6-4.5-7.4-8.2-7.4c-3.6,0-7.2,1.9-8.4,7.4H154.1z"/>
			<path class="st7" d="M166.1,174.4c3,1.4,5.8,2.4,8.7,2.4c2.9,0,4.7-1.6,4.7-3.8c0-5.7-14.3-4.4-14.3-15.8
				c0-6.3,5.4-10.2,11.5-10.2c3.4,0,6.4,0.8,9.6,2.3l-2.2,6.1c-2.3-1-4.5-1.6-6.9-1.6c-2.9,0-4.1,1.4-4.1,3.4
				c0,5.4,14.3,4.9,14.3,15.9c0,6.2-5.6,10.4-12.4,10.4c-3.6,0-7.1-0.8-10.9-2.7L166.1,174.4z"/>
			<path class="st7" d="M191.4,174.4c3,1.4,5.8,2.4,8.7,2.4c2.9,0,4.7-1.6,4.7-3.8c0-5.7-14.3-4.4-14.3-15.8
				c0-6.3,5.4-10.2,11.5-10.2c3.4,0,6.4,0.8,9.6,2.3l-2.2,6.1c-2.3-1-4.5-1.6-6.9-1.6c-2.9,0-4.1,1.4-4.1,3.4
				c0,5.4,14.3,4.9,14.3,15.9c0,6.2-5.6,10.4-12.4,10.4c-3.6,0-7.1-0.8-10.9-2.7L191.4,174.4z"/>
			<path class="st7" d="M221.1,132.8c2.4,0,4.7,1.9,4.7,4.5s-2.2,4.6-4.7,4.6c-2.7,0-4.6-2-4.6-4.6S218.7,132.8,221.1,132.8z
				 M217.3,147.9h7.7v34.7h-7.7V147.9z"/>
			<path class="st7" d="M231.6,148.6l6.6-0.7l0.7,4.5c2.5-3.6,6.3-5.4,11-5.4c6.9,0,11.5,5.1,11.5,13.3v22.3h-7.7v-21.3
				c0-4.3-1.6-7.5-5.4-7.5c-5.6,0-9,4.7-9,12.8v16h-7.7V148.6z"/>
			<path class="st7" d="M272.4,189.4c3.4,1.6,6.8,2.3,10.4,2.3c6.5,0,9.7-4.3,9.7-10.4v-3.2c-2.5,2.8-5.9,4.5-10.2,4.5
				c-10,0-16.2-8.4-16.2-17.8s6.3-17.8,16.2-17.8c4.5,0,8,1.8,10.5,4.7l0.4-3.8l7,0.7v33.6c0,9.6-7.1,16.3-17.4,16.3
				c-4.3,0-8.4-0.8-12.7-3L272.4,189.4z M293,164.8c0-6.7-4.3-11-9.8-11c-5.7,0-9.1,4.7-9.1,11c0,6.2,3.3,11,9.1,11
				C288.3,175.8,293,171.9,293,164.8z"/>
		</g>
	</g>
	<path class="st15" d="M272.5,94.9c-2,0-3.9-0.1-5.9-0.2c-18-0.9-39.9-5.8-56.1-16.5c5.9,21.8,25.9,38,49.6,38
		c19.9,0,37.2-11.4,45.7-28c-1.7,0.9-3.6,1.8-5.8,2.5C292.4,93.5,282.8,94.9,272.5,94.9z"/>
	<path class="st15" d="M312.5,77.3c-0.1,0.4-0.2,0.9-0.3,1.3C312.3,78.2,312.4,77.8,312.5,77.3z"/>
	<path class="st15" d="M268.6,56.6c-0.7,0-1.2-0.6-1.2-1.3c0-0.7,0.6-1.2,1.3-1.2c19.5,1,35.7,6.7,42.7,14.1
		c0.1-1.1,0.1-2.3,0.1-3.4c0-28.4-23.1-51.4-51.4-51.4c-28.4,0-51.4,23.1-51.4,51.4c0,3.4,0.3,6.7,1,9.9
		c15.9,11.4,38.6,16.6,57.1,17.6c12.2,0.6,23.7-0.7,32.5-3.8c3.5-1.2,6.4-2.7,8.5-4.3c1.6-3.9,2.7-8,3.3-12.4
		C305.9,64.1,288.6,57.6,268.6,56.6z"/>
	<linearGradient id="SVGID_13_" gradientUnits="userSpaceOnUse" x1="196.2158" y1="78.4307" x2="315.0712" y2="78.4307">
		<stop  offset="0" style="stop-color:#78BE20"/>
		<stop  offset="6.368811e-02" style="stop-color:#5FAB3A"/>
		<stop  offset="0.1653" style="stop-color:#3D915D"/>
		<stop  offset="0.2685" style="stop-color:#227C78"/>
		<stop  offset="0.3726" style="stop-color:#0F6E8C"/>
		<stop  offset="0.4781" style="stop-color:#046597"/>
		<stop  offset="0.5873" style="stop-color:#00629B"/>
		<stop  offset="1" style="stop-color:#00629B"/>
	</linearGradient>
	<path class="st16" d="M315.1,76.9c0.1-1.9-0.4-3.8-1.5-5.7c-0.2,2.1-0.6,4.1-1.1,6.2c-0.1,0.4-0.2,0.9-0.3,1.3
		c-0.6,2.4-1.4,4.8-2.4,7C313.1,83.1,314.9,80.1,315.1,76.9z"/>
	<linearGradient id="SVGID_14_" gradientUnits="userSpaceOnUse" x1="196.2158" y1="69.8089" x2="315.0712" y2="69.8089">
		<stop  offset="0" style="stop-color:#78BE20"/>
		<stop  offset="6.368811e-02" style="stop-color:#5FAB3A"/>
		<stop  offset="0.1653" style="stop-color:#3D915D"/>
		<stop  offset="0.2685" style="stop-color:#227C78"/>
		<stop  offset="0.3726" style="stop-color:#0F6E8C"/>
		<stop  offset="0.4781" style="stop-color:#046597"/>
		<stop  offset="0.5873" style="stop-color:#00629B"/>
		<stop  offset="1" style="stop-color:#00629B"/>
	</linearGradient>
	<path class="st17" d="M198.5,64c-0.4-0.5-1.2-0.7-1.8-0.2c-0.5,0.4-0.7,1.2-0.2,1.8c3,4,6.7,7.4,10.9,10.5
		c-0.3-1.2-0.5-2.4-0.6-3.6C203.6,69.9,200.8,67.1,198.5,64z"/>
	<linearGradient id="SVGID_15_" gradientUnits="userSpaceOnUse" x1="196.2158" y1="84.7598" x2="315.0712" y2="84.7598">
		<stop  offset="0" style="stop-color:#78BE20"/>
		<stop  offset="6.368811e-02" style="stop-color:#5FAB3A"/>
		<stop  offset="0.1653" style="stop-color:#3D915D"/>
		<stop  offset="0.2685" style="stop-color:#227C78"/>
		<stop  offset="0.3726" style="stop-color:#0F6E8C"/>
		<stop  offset="0.4781" style="stop-color:#046597"/>
		<stop  offset="0.5873" style="stop-color:#00629B"/>
		<stop  offset="1" style="stop-color:#00629B"/>
	</linearGradient>
	<path class="st18" d="M266.7,92.2c-18.5-1-41.2-6.2-57.1-17.6c0.2,1.2,0.5,2.4,0.8,3.6c16.2,10.6,38.1,15.5,56.1,16.5
		c2,0.1,4,0.2,5.9,0.2c10.3,0,19.9-1.4,27.5-4.1c2.2-0.8,4.1-1.6,5.8-2.5c0.7-1.3,1.3-2.7,1.9-4.1c-2.2,1.6-5.1,3.1-8.5,4.3
		C290.4,91.5,278.9,92.9,266.7,92.2z"/>
	<linearGradient id="SVGID_16_" gradientUnits="userSpaceOnUse" x1="196.2158" y1="75.3295" x2="315.0712" y2="75.3295">
		<stop  offset="0" style="stop-color:#78BE20"/>
		<stop  offset="6.368811e-02" style="stop-color:#5FAB3A"/>
		<stop  offset="0.1653" style="stop-color:#3D915D"/>
		<stop  offset="0.2685" style="stop-color:#227C78"/>
		<stop  offset="0.3726" style="stop-color:#0F6E8C"/>
		<stop  offset="0.4781" style="stop-color:#046597"/>
		<stop  offset="0.5873" style="stop-color:#00629B"/>
		<stop  offset="1" style="stop-color:#00629B"/>
	</linearGradient>
	<path class="st19" d="M209.6,74.6c-1-0.7-2-1.5-2.9-2.2c0.2,1.2,0.4,2.4,0.6,3.6c1,0.7,2,1.5,3.1,2.2
		C210.1,77.1,209.8,75.9,209.6,74.6z"/>
	<linearGradient id="SVGID_17_" gradientUnits="userSpaceOnUse" x1="196.2158" y1="83.4367" x2="315.0712" y2="83.4367">
		<stop  offset="0" style="stop-color:#78BE20"/>
		<stop  offset="6.368811e-02" style="stop-color:#5FAB3A"/>
		<stop  offset="0.1653" style="stop-color:#3D915D"/>
		<stop  offset="0.2685" style="stop-color:#227C78"/>
		<stop  offset="0.3726" style="stop-color:#0F6E8C"/>
		<stop  offset="0.4781" style="stop-color:#046597"/>
		<stop  offset="0.5873" style="stop-color:#00629B"/>
		<stop  offset="1" style="stop-color:#00629B"/>
	</linearGradient>
	<path class="st20" d="M307.7,84.1c-0.6,1.4-1.2,2.8-1.9,4.1c1.5-0.8,2.8-1.7,4-2.6c1-2.3,1.8-4.6,2.4-7
		C311.5,80.6,310,82.4,307.7,84.1z"/>
</g>
<g id="Layer_2">
</g>
<g id="Layer_3">
</g>
<g id="Layer_4">
</g>
<g id="Layer_5">
</g>
<g id="Layer_6">
</g>
<g id="Layer_7">
</g>
<g id="Layer_8">
</g>
<g id="Layer_9">
</g>
<g id="Layer_10">
</g>
<g id="Layer_11">
	<g>
		<path class="st5" d="M265,200.4h-1.1v-0.6h2.9v0.6h-1.1v3.5H265V200.4z"/>
		<path class="st5" d="M267.5,199.8h0.8l0.8,2.7c0.1,0.2,0.1,0.5,0.2,0.8c0.1-0.3,0.1-0.6,0.2-0.8l0.8-2.7h0.8l0.6,4.2H271l-0.3-2.4
			c0-0.2,0-0.5-0.1-0.7c-0.1,0.3-0.1,0.5-0.2,0.7l-0.7,2.4H269l-0.7-2.4c-0.1-0.2-0.1-0.5-0.2-0.7c0,0.3,0,0.5-0.1,0.7l-0.3,2.4
			h-0.7L267.5,199.8z"/>
	</g>
</g>
</svg>
