<?xml version="1.0" encoding="utf-8"?>
<!-- Generator: Adobe Illustrator 23.0.3, SVG Export Plug-In . SVG Version: 6.00 Build 0)  -->
<svg version="1.1" id="Layer_1" xmlns="http://www.w3.org/2000/svg" xmlns:xlink="http://www.w3.org/1999/xlink" x="0px" y="0px"
	 viewBox="0 0 36.3 13" style="enable-background:new 0 0 36.3 13;" xml:space="preserve">
<style type="text/css">
	.Arched_x0020_Green{fill:url(#SVGID_1_);stroke:#FFFFFF;stroke-width:0.25;stroke-miterlimit:1;}
</style>
<linearGradient id="SVGID_1_" gradientUnits="userSpaceOnUse" x1="-125.9004" y1="113.9629" x2="-125.1933" y2="113.2558">
	<stop  offset="0" style="stop-color:#20AC4B"/>
	<stop  offset="0.9831" style="stop-color:#19361A"/>
</linearGradient>
<path d="M35.3,6.3l-17.3,6.2h0.2L1,6.3l0,0.6l17.3-6.2h-0.2l17.3,6.2V6.3z M18.1,0L0.8,6.3L0,6.5l0.8,0.3L18.1,13l0.1,0l0.1,0
	l17.3-6.1l0.8-0.3l-0.8-0.3L18.3,0l-0.1,0L18.1,0z"/>
<path d="M8.3,5.1l0.9-0.3c0,0,0,1.9,0,2.2c0,0.3,0.4,0.8,0.9,0.8c0,0,0.5,0,0.5,0c0.1,0,0.3-0.1,0.3-0.4c0-0.3,0-3.2,0-3.2l1-0.3
	c0,0,0,3.5,0,3.8c0,0.3-0.3,1.1-1,1.1h-0.7C9.9,8.6,8.3,8.3,8.3,7C8.3,5.8,8.3,5.1,8.3,5.1"/>
<path d="M12.5,9.1c0,0.2-0.2,0.4-0.4,0.4c-0.2,0-0.4-0.2-0.4-0.4c0-0.2,0.2-0.4,0.4-0.4C12.4,8.7,12.5,8.9,12.5,9.1"/>
<path d="M19.9,10.7c0,0.2-0.2,0.4-0.4,0.4c-0.2,0-0.4-0.2-0.4-0.4c0-0.2,0.2-0.4,0.4-0.4C19.7,10.3,19.9,10.4,19.9,10.7"/>
<path d="M25.6,8.5c0,0.2-0.2,0.4-0.4,0.4s-0.4-0.2-0.4-0.4c0-0.2,0.2-0.4,0.4-0.4S25.6,8.3,25.6,8.5"/>
<path d="M28.2,7.5c0,0.2-0.2,0.4-0.4,0.4c-0.2,0-0.4-0.2-0.4-0.4c0-0.2,0.2-0.4,0.4-0.4C28,7.1,28.2,7.3,28.2,7.5"/>
<path d="M13.8,10V3.1c0.5-0.2,1.5-0.7,2.5-0.9c1-0.2,2.3-0.2,2.5,1.4c0.2,1.6-2.3,2.8-2.5,2.9c0.2,0.4,2.6,4.7,2.6,4.7l-0.8,0.4
	l-2.6-4.7C15.2,7,15,7,14.8,7.1c0,0.2,0,3.1,0,3.1L13.8,10z M14.8,6.3c3-1.1,3.1-1.9,3.1-2.5c0.1-1.6-2.8-0.3-3.1-0.1V6.3z"/>
<path d="M20.5,10.7l-0.3-0.8c0,0,2.5-0.9,2.9-1.1c0.4-0.2,1-0.6,0.3-1.4c-0.7-0.8-1.8-1.5-2.5-1.9c-0.7-0.4-1-1-0.8-1.8
	c0.2-0.8,0.9-1,1.6-0.8c0.7,0.2,2.5,0.9,2.5,0.9v0.9c0,0-1.9-0.8-2.5-0.9c-0.6-0.2-1.2,0.3-0.6,0.9c0,0,1.3,0.9,2.3,1.6
	c0.3,0.2,1.1,0.9,1.1,1.8c0,0.8-0.8,1.3-1.2,1.5C23,9.8,20.5,10.7,20.5,10.7"/>
<polygon points="26.2,4.4 26.2,8.6 27.1,8.3 27.1,4.8 "/>
</svg>
